$MeshFormat
4.1 0 8
$EndMeshFormat
$PhysicalNames
1
3 1 "Eprouvette_Spline"
$EndPhysicalNames
$Entities
28 24 10 1
1 -1.5 5 0 0 
2 -1.5 1 0 0 
3 -1.5 -1 0 0 
4 -1.5 -5 0 0 
5 1.5 -5 0 0 
6 1.5 -1 0 0 
7 1.5 1 0 0 
8 1.5 5 0 0 
9 -0.8 0.75 0 0 
10 -0.9 0 0 0 
11 -0.8 -0.75 0 0 
12 0.8 -0.75 0 0 
13 0.9 0 0 0 
14 0.8 0.75 0 0 
15 -1.5 5 0.25 0 
16 -1.5 1 0.25 0 
20 -0.8 0.75 0.25 0 
21 -0.9 0 0.25 0 
22 -0.8 -0.75 0.25 0 
23 -1.5 -1 0.25 0 
27 -1.5 -5 0.25 0 
31 1.5 -5 0.25 0 
35 1.5 -1 0.25 0 
39 0.8 -0.75 0.25 0 
40 0.9 0 0.25 0 
41 0.8 0.75 0.25 0 
42 1.5 1 0.25 0 
46 1.5 5 0.25 0 
1 -1.5 1 0 -1.5 5 0 0 2 1 -2 
2 -1.5 -1 0 -0.7814814814814814 1 0 0 2 2 -3 
3 -1.5 -5 0 -1.5 -1 0 0 2 3 -4 
4 -1.5 -5 0 1.5 -5 0 0 2 4 -5 
5 1.5 -5 0 1.5 -1 0 0 2 5 -6 
6 0.7814814814814814 -1 0 1.5 1 0 0 2 6 -7 
7 1.5 1 0 1.5 5 0 0 2 7 -8 
8 -1.5 5 0 1.5 5 0 0 2 8 -1 
10 -1.5 1 0.25 -1.5 5 0.25 0 2 15 -16 
11 -1.5 -1 0.25 -0.7814814814814814 1 0.2500000000000001 0 2 16 -23 
12 -1.5 -5 0.25 -1.5 -1 0.25 0 2 23 -27 
13 -1.5 -5 0.25 1.5 -5 0.25 0 2 27 -31 
14 1.5 -5 0.25 1.5 -1 0.25 0 2 31 -35 
15 0.7814814814814814 -1 0.25 1.5 1 0.2500000000000001 0 2 35 -42 
16 1.5 1 0.25 1.5 5 0.25 0 2 42 -46 
17 -1.5 5 0.25 1.5 5 0.25 0 2 46 -15 
19 -1.5 5 0 -1.5 5 0.25 0 2 1 -15 
20 -1.5 1 0 -1.5 1 0.25 0 2 2 -16 
24 -1.5 -1 0 -1.5 -1 0.25 0 2 3 -23 
28 -1.5 -5 0 -1.5 -5 0.25 0 2 4 -27 
32 1.5 -5 0 1.5 -5 0.25 0 2 5 -31 
36 1.5 -1 0 1.5 -1 0.25 0 2 6 -35 
40 1.5 1 0 1.5 1 0.25 0 2 7 -42 
44 1.5 5 0 1.5 5 0.25 0 2 8 -46 
1 -1.5 -5 0 1.5 5 0 0 8 1 2 3 4 5 6 7 8 
21 -1.5 1 0 -1.5 5 0.25 0 4 1 20 -10 -19 
25 -1.5 -1 0 -0.7814814814814814 1 0.2500000000000001 0 4 2 24 -11 -20 
29 -1.5 -5 0 -1.5 -1 0.25 0 4 3 28 -12 -24 
33 -1.5 -5 0 1.5 -5 0.25 0 4 4 32 -13 -28 
37 1.5 -5 0 1.5 -1 0.25 0 4 5 36 -14 -32 
41 0.7814814814814814 -1 0 1.5 1 0.2500000000000001 0 4 6 40 -15 -36 
45 1.5 1 0 1.5 5 0.25 0 4 7 44 -16 -40 
49 -1.5 5 0 1.5 5 0.25 0 4 8 19 -17 -44 
50 -1.5 -5 0.25 1.5 5 0.2500000000000001 0 8 10 11 12 13 14 15 16 17 
1 -1.5 -5 0 1.5 5 0.2500000000000001 1 1 10 -1 50 21 25 29 33 37 41 45 49 
$EndEntities
$Nodes
43 594 1 594
0 1 0 1
1
-1.5 5 0
0 2 0 1
2
-1.5 1 0
0 3 0 1
3
-1.5 -1 0
0 4 0 1
4
-1.5 -5 0
0 5 0 1
5
1.5 -5 0
0 6 0 1
6
1.5 -1 0
0 7 0 1
7
1.5 1 0
0 8 0 1
8
1.5 5 0
0 15 0 1
9
-1.5 5 0.25
0 16 0 1
10
-1.5 1 0.25
0 23 0 1
11
-1.5 -1 0.25
0 27 0 1
12
-1.5 -5 0.25
0 31 0 1
13
1.5 -5 0.25
0 35 0 1
14
1.5 -1 0.25
0 42 0 1
15
1.5 1 0.25
0 46 0 1
16
1.5 5 0.25
1 1 0 9
17
18
19
20
21
22
23
24
25
-1.5 4.60000000000222 0
-1.5 4.20000000000444 0
-1.5 3.800000000006659 0
-1.5 3.400000000008879 0
-1.5 3.000000000011011 0
-1.5 2.600000000008878 0
-1.5 2.200000000006658 0
-1.5 1.800000000004439 0
-1.5 1.400000000002219 0
1 2 0 7
26
27
28
29
30
31
32
-1.128497622325161 0.9127297317865946 0
-0.7970764546173409 0.7449266688237904 0
-0.8219841388087785 0.3725995809508966 0
-0.9 -4.354385860317153e-09 0
-0.8219841370008919 -0.3725995872761021 0
-0.7970764566849957 -0.7449266725620469 0
-1.128497624235529 -0.9127297322088117 0
1 3 0 9
33
34
35
36
37
38
39
40
41
-1.5 -1.400000000000555 0
-1.5 -1.80000000000111 0
-1.5 -2.200000000000555 0
-1.5 -2.59999999999889 0
-1.5 -2.999999999997313 0
-1.5 -3.4 0
-1.5 -3.800000000002774 0
-1.5 -4.200000000003328 0
-1.5 -4.600000000001664 0
1 4 0 7
42
43
44
45
46
47
48
-1.125000000001386 -5 0
-0.7500000000027736 -5 0
-0.3750000000041609 -5 0
-5.504485756091526e-12 -5 0
0.3749999999958398 -5 0
0.7499999999972267 -5 0
1.124999999998613 -5 0
1 5 0 9
49
50
51
52
53
54
55
56
57
1.5 -4.60000000000222 0
1.5 -4.20000000000444 0
1.5 -3.800000000006659 0
1.5 -3.400000000008879 0
1.5 -3.000000000011011 0
1.5 -2.600000000008878 0
1.5 -2.200000000006658 0
1.5 -1.800000000004439 0
1.5 -1.400000000002219 0
1 6 0 7
58
59
60
61
62
63
64
1.128497622325161 -0.9127297317865946 0
0.7970764546173409 -0.7449266688237904 0
0.8219841388087785 -0.3725995809508966 0
0.9 4.354385860317153e-09 0
0.8219841370008919 0.3725995872761021 0
0.7970764566849957 0.7449266725620469 0
1.128497624235529 0.9127297322088117 0
1 7 0 9
65
66
67
68
69
70
71
72
73
1.5 1.400000000000555 0
1.5 1.80000000000111 0
1.5 2.200000000000555 0
1.5 2.59999999999889 0
1.5 2.999999999997313 0
1.5 3.4 0
1.5 3.800000000002774 0
1.5 4.200000000003328 0
1.5 4.600000000001664 0
1 8 0 7
74
75
76
77
78
79
80
1.125000000001386 5 0
0.7500000000027736 5 0
0.3750000000041609 5 0
5.504485756091526e-12 5 0
-0.3749999999958398 5 0
-0.7499999999972267 5 0
-1.124999999998613 5 0
1 10 0 9
81
82
83
84
85
86
87
88
89
-1.5 4.60000000000222 0.25
-1.5 4.20000000000444 0.25
-1.5 3.800000000006659 0.25
-1.5 3.400000000008879 0.25
-1.5 3.000000000011011 0.25
-1.5 2.600000000008878 0.25
-1.5 2.200000000006658 0.25
-1.5 1.800000000004439 0.25
-1.5 1.400000000002219 0.25
1 11 0 7
90
91
92
93
94
95
96
-1.128497622325161 0.9127297317865946 0.25
-0.7970764546173409 0.7449266688237904 0.25
-0.8219841388087785 0.3725995809508966 0.25
-0.9 -4.354385860317153e-09 0.25
-0.8219841370008919 -0.3725995872761021 0.25
-0.7970764566849957 -0.7449266725620469 0.25
-1.128497624235529 -0.9127297322088117 0.25
1 12 0 9
97
98
99
100
101
102
103
104
105
-1.5 -1.400000000000555 0.25
-1.5 -1.80000000000111 0.25
-1.5 -2.200000000000555 0.25
-1.5 -2.59999999999889 0.25
-1.5 -2.999999999997313 0.25
-1.5 -3.4 0.25
-1.5 -3.800000000002774 0.25
-1.5 -4.200000000003328 0.25
-1.5 -4.600000000001664 0.25
1 13 0 7
106
107
108
109
110
111
112
-1.125000000001386 -5 0.25
-0.7500000000027736 -5 0.25
-0.3750000000041609 -5 0.25
-5.504485756091526e-12 -5 0.25
0.3749999999958398 -5 0.25
0.7499999999972267 -5 0.25
1.124999999998613 -5 0.25
1 14 0 9
113
114
115
116
117
118
119
120
121
1.5 -4.60000000000222 0.25
1.5 -4.20000000000444 0.25
1.5 -3.800000000006659 0.25
1.5 -3.400000000008879 0.25
1.5 -3.000000000011011 0.25
1.5 -2.600000000008878 0.25
1.5 -2.200000000006658 0.25
1.5 -1.800000000004439 0.25
1.5 -1.400000000002219 0.25
1 15 0 7
122
123
124
125
126
127
128
1.128497622325161 -0.9127297317865946 0.25
0.7970764546173409 -0.7449266688237904 0.25
0.8219841388087785 -0.3725995809508966 0.25
0.9 4.354385860317153e-09 0.25
0.8219841370008919 0.3725995872761021 0.25
0.7970764566849957 0.7449266725620469 0.25
1.128497624235529 0.9127297322088117 0.25
1 16 0 9
129
130
131
132
133
134
135
136
137
1.5 1.400000000000555 0.25
1.5 1.80000000000111 0.25
1.5 2.200000000000555 0.25
1.5 2.59999999999889 0.25
1.5 2.999999999997313 0.25
1.5 3.4 0.25
1.5 3.800000000002774 0.25
1.5 4.200000000003328 0.25
1.5 4.600000000001664 0.25
1 17 0 7
138
139
140
141
142
143
144
1.125000000001386 5 0.25
0.7500000000027736 5 0.25
0.3750000000041609 5 0.25
5.504485756091526e-12 5 0.25
-0.3749999999958398 5 0.25
-0.7499999999972267 5 0.25
-1.124999999998613 5 0.25
2 1 0 188
145
146
147
148
149
150
151
152
153
154
155
156
157
158
159
160
161
162
163
164
165
166
167
168
169
170
171
172
173
174
175
176
177
178
179
180
181
182
183
184
185
186
187
188
189
190
191
192
193
194
195
196
197
198
199
200
201
202
203
204
205
206
207
208
209
210
211
212
213
214
215
216
217
218
219
220
221
222
223
224
225
226
227
228
229
230
231
232
233
234
235
236
237
238
239
240
241
242
243
244
245
246
247
248
249
250
251
252
253
254
255
256
257
258
259
260
261
262
263
264
265
266
267
268
269
270
271
272
273
274
275
276
277
278
279
280
281
282
283
284
285
286
287
288
289
290
291
292
293
294
295
296
297
298
299
300
301
302
303
304
305
306
307
308
309
310
311
312
313
314
315
316
317
318
319
320
321
322
323
324
325
326
327
328
329
330
331
332
-1.148905862938951 3.191057650571311 0
1.148905862938951 -3.191057650571311 0
1.158126727460974 -1.995443180153493 0
-1.158126727460974 1.995443180153493 0
0.1794796991021118 4.685465840031643 0
-0.179479699102112 -4.685465840031643 0
-1.175852476496037 -2.402646938830832 0
1.175852476496037 2.402646938830832 0
-1.162775067217511 -3.599941037749709 0
1.162775067217511 3.599941037749709 0
-0.817311979732676 -1.117637711104638 0
0.817311979732676 1.117637711104638 0
1.110921530228516 -3.984017601344237 0
-1.110921530228516 3.984017601344237 0
0.5414986205942566 0.1194034325248995 0
0.4952866555203416 0.965271142425424 0
0.5090992457365642 1.335466397658928 0
-0.4953023854041132 -0.9652721947123295 0
-0.5091018673838594 -1.335466573040079 0
-0.4828470251998065 0.543731078868684 0
-0.4625918201640008 0.9089018772509021 0
0.4828470251998065 -0.543731078868684 0
0.4625918201640008 -0.9089018772509021 0
0.5564297421641291 -4.688870821780892 0
-0.5564297421641291 4.688870821780892 0
-0.5414986205942566 -0.1194034325248995 0
-1.20302506298161 -4.410602573816183 0
1.20302506298161 4.410602573816183 0
-0.839941646833833 -1.494417914497466 0
-0.5241300421266023 -1.708600944884838 0
-0.1820669633118968 -1.551181635374174 0
-0.2004734631481202 -1.92171298783849 0
0.1498400876806617 -1.753619343520948 0
0.1261593326265404 -2.132671310810796 0
-0.2220408362882704 -2.308722194735781 0
0.1059475429523588 -2.522127653849714 0
-0.2443229542784836 -2.700534908360532 0
0.08666649897732795 -2.915448378739316 0
-0.2651874424617965 -3.095121887632048 0
0.06599781800945427 -3.31031736625668 0
-0.2854601707796308 -3.489981551453738 0
0.04567722573313145 -3.705335994414948 0
-0.3045228963223754 -3.883354767458523 0
0.4388418175837039 -2.735039185252228 0
0.3967797208015165 -3.525283469164624 0
0.377295155714934 -3.918573233263317 0
-0.5812013659856757 -2.859351471928743 0
0.8399412098926171 1.494417885267274 0
0.5241295323618504 1.708600910782947 0
0.1820664414098888 1.551181600460334 0
0.2004732912036602 1.921712976335868 0
-0.1498402033217397 1.753619335784871 0
-0.1261593805574634 2.132671307604346 0
0.2220407996423732 2.308722192284269 0
-0.1059475570484955 2.52212765290672 0
0.2443229458214779 2.700534907794781 0
-0.08666650273618499 2.915448378487858 0
0.2651874404258192 3.095121887495846 0
-0.06599781897526 3.31031736619207 0
0.2854601702793336 3.489981551420269 0
-0.04567722573313145 3.705335994414948 0
0.3045228962389923 3.883354767452945 0
-0.4388418175837039 2.735039185252228 0
-0.396779720962484 3.525283469153857 0
-0.3772951557417619 3.918573233261523 0
0.5812013642368452 2.859351471811751 0
-0.1572421989679617 0.7026802204632132 0
0.1572125451780773 -0.7026781662177162 0
-0.1623692853145516 0.3266584884240482 0
0.1599446577009244 -0.3217546638239088 0
0.474260655724592 -1.960325571763347 0
0.5005836174703053 -1.595128306877986 0
-0.4742606829865921 1.960325569939593 0
-0.5005836412874851 1.595128305284681 0
-0.1485975642905958 -0.4848893626550428 0
-0.8613215186164735 -1.865856856806327 0
0.861321405913382 1.865856849266793 0
0.1507537619510091 0.4882008442367836 0
-0.163059278190847 1.05309165500862 0
0.163054335892533 -1.05309131263437 0
-0.6147651152763716 -3.651827246606921 0
-0.622057766334609 -4.051189547782245 0
0.6147651151790912 3.651827246600413 0
0.6220577663044984 4.051189547780231 0
0.7262329089602908 -3.740309519233113 0
0.7061606616363185 -4.132628881879352 0
1.080902389241351 -4.39693585480728 0
-0.7262329089602908 3.740309519233113 0
-0.7061606616363185 4.132628881879352 0
-1.080902389241351 4.39693585480728 0
-0.8148915010527062 1.083624488344805 0
0.8148915010527062 -1.083624488344805 0
-0.1678790835048125 -0.1000878082301565 0
0.3699590366903312 -4.337060488283707 0
-0.369959036694164 4.337060488283449 0
0.3302456443021689 4.333215199845425 0
0.6744939792041723 4.451531893545924 0
-0.3302456443183825 -4.333215199846509 0
-0.6744939792041728 -4.451531893545924 0
-0.764735462334128 3.353169190484538 0
0.7647354623149653 -3.35316919048582 0
0.8280343294415962 -1.799180679563406 0
-0.8280343379547929 1.799180678993896 0
-1.125132627410314 3.578092326941456 0
-0.8219247580724691 2.952556790141776 0
1.12513262740712 -3.578092326941669 0
0.8219247580716378 -2.952556790141832 0
0.03003996632199982 -4.098427863370417 0
-0.03003996632765105 4.09842786337004 0
-1.196247757135754 -4.009357299099438 0
1.196247757135754 4.009357299099438 0
-1.154748524058725 2.395166910692205 0
-0.8074912294181709 2.177846939501324 0
1.154748524058725 -2.395166910692205 0
0.807491223455638 -2.177846939900201 0
-1.165820240163752 -3.200043779168504 0
1.165820240163752 3.200043779168504 0
-1.17124121793138 -2.80062632929836 0
1.17124121793138 2.80062632929836 0
-0.5921251809803381 -3.249395289154605 0
0.5921251802499404 3.249395289105743 0
-0.5571501763998123 -2.463962815604437 0
0.5571501685911902 2.463962815082062 0
0.4291576792931009 -3.131969063340083 0
-0.4291576801107049 3.131969063285388 0
0.1869848466228842 -4.687957889688818 0
-0.1869848466235232 4.687957889688775 0
-0.5379125543611089 -2.081692236334278 0
0.5379124145499716 2.081692226981289 0
0.4554757885673036 -2.350594824257309 0
-0.4554758044425691 2.350594823195296 0
-1.162735009876008 1.616010766627871 0
1.162735008457142 -1.616010766722789 0
-1.152477260754028 -1.275097053296621 0
1.152477234214838 1.275097051521221 0
0.1610578844684908 0.1106663961597462 0
0.8013299869128353 -2.570541015687605 0
-0.8013299895126722 2.570541015513683 0
-0.5094813844542587 -0.5386906649165083 0
0.5093870051516292 0.5386843511950755 0
-0.9202002022672928 -4.654078527875087 0
0.9202002022672928 4.654078527875087 0
-1.167138704329011 2.79228931692144 0
1.167138704107866 -2.792289316936235 0
-1.176421672310997 -1.639168056951647 0
1.176421576280414 1.639168050527459 0
0.1717170428241569 0.824406237946878 0
-0.1713817940931879 -0.8238551525813531 0
-1.160787470683505 1.24275866755618 0
1.160787470447028 -1.242758667572 0
-1.186601192309385 -2.01524965616488 0
1.186601167460138 2.015249654502532 0
0.9197566307685732 -4.71019021389229 0
-0.9197566307685732 4.71019021389229 0
-0.4854156634280853 0.2065281515264676 0
0.4854156634280853 -0.2065281515264676 0
0.1578614802700473 -1.397546287392332 0
-0.1578624142131439 1.397546337080836 0
0.1728746155144934 1.18782722843017 0
-0.1728228656717462 -1.187735525955773 0
-0.5043734164833136 1.238606525052772 0
0.5043730581221261 -1.238606501336211 0
-0.8643084008641444 -2.227507092180468 0
0.8643083835431957 2.227507091021743 0
-0.8371484565917839 1.433495032909718 0
0.8371484098838189 -1.433495030356979 0
-0.8782471650373127 -2.61852954654032 0
0.878247161837503 2.618529546326261 0
-0.01103692946147185 4.424975379613238 0
0.01103692945770916 -4.424975379613489 0
-0.5625000000034672 -4.746381182514502 0
0.5625000000034672 4.746381182514501 0
-0.8923114370210009 -3.00782821629176 0
0.8923114366760641 3.007828216268684 0
0.8994173189992996 3.40925604847538 0
-0.8994173190990116 -3.40925604848205 0
-0.9036612179931762 -3.819870612904499 0
0.9036612179661403 3.81987061290269 0
0.9127291855678037 4.236489708029204 0
-0.9127291855746069 -4.23648970802966 0
0.7266416921001406 -4.453137252128704 0
-0.7266416921009071 4.453137252128652 0
-1.231699384965106 -4.724249423404935 0
1.231699384965106 4.724249423404935 0
-1.225131804001707 4.741425213740357 0
1.225131804001707 -4.741425213740357 0
-0.3418641632109809 -0.3107678170816517 0
0.3406743180413464 0.3142387560291262 0
2 21 0 10
333
334
335
336
337
338
339
340
341
342
-1.5 2.400000000007768 0.125
-1.5 2.000000000005548 0.125
-1.5 1.600000000003329 0.1250000000000004
-1.5 1.20000000000111 0.125
-1.5 2.800000000009945 0.1249999999999999
-1.5 3.200000000009945 0.1249999999999998
-1.5 3.600000000007769 0.1249999999999995
-1.5 4.40000000000333 0.125
-1.5 4.00000000000555 0.1249999999999998
-1.5 4.80000000000111 0.125
2 25 0 8
343
344
345
346
347
348
349
350
-1.315473553715468 0.9511512372457427 0.1248852195640297
-1.316373035171776 -0.9513409204625709 0.125
-0.8728761505193384 0.1887881078219911 0.1244089099122435
-0.8728761487244988 -0.1887881152260255 0.1244089099996
-0.7782476233102192 0.5566703978831703 0.121004193406546
-0.7782476225120836 -0.5566704031699407 0.1210041931723
-0.9469782758321366 0.860051459767849 0.1200007961482652
-0.9469782786086876 -0.8600514608969655 0.1200007964981624
2 29 0 10
351
352
353
354
355
356
357
358
359
360
-1.5 -3.600000000001387 0.125
-1.5 -3.199999999998656 0.125
-1.5 -1.200000000000278 0.125
-1.5 -1.600000000000832 0.1249999999999998
-1.5 -4.000000000003053 0.1250000000000001
-1.5 -2.000000000000832 0.125
-1.5 -2.799999999998102 0.1250000000000002
-1.5 -2.399999999999723 0.1250000000000002
-1.5 -4.800000000000832 0.125
-1.5 -4.400000000002495 0.1249999999999996
2 33 0 8
361
362
363
364
365
366
367
368
1.312499999999307 -5 0.125
0.5624999999965334 -5 0.1249999999999999
0.937499999997919 -5 0.125
0.1874999999951679 -5 0.125
-0.187500000004833 -5 0.1249999999999996
-1.312500000000693 -5 0.125
-0.562500000003467 -5 0.1250000000000001
-0.9375000000020801 -5 0.1249999999999999
2 37 0 10
369
370
371
372
373
374
375
376
377
378
1.5 -2.400000000007768 0.125
1.5 -2.000000000005548 0.125
1.5 -1.600000000003329 0.1250000000000004
1.5 -1.20000000000111 0.125
1.5 -2.800000000009945 0.1249999999999999
1.5 -3.200000000009945 0.1249999999999998
1.5 -3.600000000007769 0.1249999999999995
1.5 -4.40000000000333 0.125
1.5 -4.00000000000555 0.1249999999999998
1.5 -4.80000000000111 0.125
2 41 0 8
379
380
381
382
383
384
385
386
1.315473553715468 -0.9511512372457427 0.1248852195640297
1.316373035171776 0.9513409204625709 0.125
0.8728761505193384 -0.1887881078219911 0.1244089099122434
0.8728761487244988 0.1887881152260255 0.1244089099996
0.7782476233102192 -0.5566703978831703 0.1210041934065457
0.7782476225120836 0.5566704031699407 0.1210041931723
0.9469782758321366 -0.860051459767849 0.1200007961482652
0.9469782786086876 0.8600514608969655 0.1200007964981624
2 45 0 10
387
388
389
390
391
392
393
394
395
396
1.5 3.600000000001387 0.125
1.5 3.199999999998656 0.125
1.5 1.200000000000278 0.125
1.5 1.600000000000832 0.1249999999999998
1.5 4.000000000003053 0.1250000000000001
1.5 2.000000000000832 0.125
1.5 2.799999999998102 0.1250000000000002
1.5 2.399999999999723 0.125
1.5 4.800000000000832 0.125
1.5 4.400000000002495 0.125
2 49 0 8
397
398
399
400
401
402
403
404
-1.312499999999307 5 0.125
-0.5624999999965334 5 0.1249999999999999
-0.937499999997919 5 0.125
-0.1874999999951679 5 0.125
0.187500000004833 5 0.1249999999999996
1.312500000000693 5 0.125
0.9375000000020801 5 0.1249999999999999
0.562500000003467 5 0.1249999999999998
2 50 0 188
405
406
407
408
409
410
411
412
413
414
415
416
417
418
419
420
421
422
423
424
425
426
427
428
429
430
431
432
433
434
435
436
437
438
439
440
441
442
443
444
445
446
447
448
449
450
451
452
453
454
455
456
457
458
459
460
461
462
463
464
465
466
467
468
469
470
471
472
473
474
475
476
477
478
479
480
481
482
483
484
485
486
487
488
489
490
491
492
493
494
495
496
497
498
499
500
501
502
503
504
505
506
507
508
509
510
511
512
513
514
515
516
517
518
519
520
521
522
523
524
525
526
527
528
529
530
531
532
533
534
535
536
537
538
539
540
541
542
543
544
545
546
547
548
549
550
551
552
553
554
555
556
557
558
559
560
561
562
563
564
565
566
567
568
569
570
571
572
573
574
575
576
577
578
579
580
581
582
583
584
585
586
587
588
589
590
591
592
-1.148905862938951 3.191057650571311 0.25
1.148905862938951 -3.191057650571311 0.2500000000000002
1.158126727460974 -1.995443180153493 0.2500000000000002
-1.158126727460974 1.995443180153493 0.25
0.1794796991021118 4.685465840031643 0.2500000000000001
-0.179479699102112 -4.685465840031643 0.2500000000000001
-1.175852476496037 -2.402646938830832 0.25
1.175852476496037 2.402646938830832 0.2500000000000002
-1.162775067217511 -3.599941037749709 0.25
1.162775067217511 3.599941037749709 0.2500000000000002
-0.817311979732676 -1.117637711104638 0.2500000000000001
0.817311979732676 1.117637711104638 0.2500000000000002
1.110921530228516 -3.984017601344237 0.2500000000000002
-1.110921530228516 3.984017601344237 0.25
0.5414986205942566 0.1194034325248995 0.2500000000000002
0.4952866555203416 0.965271142425424 0.2500000000000002
0.5090992457365642 1.335466397658928 0.2500000000000002
-0.4953023854041132 -0.9652721947123295 0.2500000000000001
-0.5091018673838594 -1.335466573040079 0.2500000000000001
-0.4828470251998065 0.543731078868684 0.2500000000000001
-0.4625918201640008 0.9089018772509021 0.2500000000000001
0.4828470251998065 -0.543731078868684 0.2500000000000002
0.4625918201640008 -0.9089018772509021 0.2500000000000002
0.5564297421641291 -4.688870821780892 0.2500000000000002
-0.5564297421641291 4.688870821780892 0.2500000000000001
-0.5414986205942566 -0.1194034325248995 0.2500000000000001
-1.20302506298161 -4.410602573816183 0.25
1.20302506298161 4.410602573816183 0.2500000000000002
-0.839941646833833 -1.494417914497466 0.2500000000000001
-0.5241300421266023 -1.708600944884838 0.2500000000000001
-0.1820669633118968 -1.551181635374174 0.2500000000000001
-0.2004734631481202 -1.92171298783849 0.2500000000000001
0.1498400876806617 -1.753619343520948 0.2500000000000001
0.1261593326265404 -2.132671310810796 0.2500000000000001
-0.2220408362882704 -2.308722194735781 0.2500000000000001
0.1059475429523588 -2.522127653849714 0.2500000000000001
-0.2443229542784836 -2.700534908360532 0.2500000000000001
0.08666649897732795 -2.915448378739316 0.2500000000000001
-0.2651874424617965 -3.095121887632048 0.2500000000000001
0.06599781800945427 -3.31031736625668 0.2500000000000001
-0.2854601707796308 -3.489981551453738 0.2500000000000001
0.04567722573313145 -3.705335994414948 0.2500000000000001
-0.3045228963223754 -3.883354767458523 0.2500000000000001
0.4388418175837039 -2.735039185252228 0.2500000000000002
0.3967797208015165 -3.525283469164624 0.2500000000000002
0.377295155714934 -3.918573233263317 0.2500000000000002
-0.5812013659856757 -2.859351471928743 0.2500000000000001
0.8399412098926171 1.494417885267274 0.2500000000000002
0.5241295323618504 1.708600910782947 0.2500000000000002
0.1820664414098888 1.551181600460334 0.2500000000000001
0.2004732912036602 1.921712976335868 0.2500000000000001
-0.1498402033217397 1.753619335784871 0.2500000000000001
-0.1261593805574634 2.132671307604346 0.2500000000000001
0.2220407996423732 2.308722192284269 0.2500000000000001
-0.1059475570484955 2.52212765290672 0.2500000000000001
0.2443229458214779 2.700534907794781 0.2500000000000001
-0.08666650273618499 2.915448378487858 0.2500000000000001
0.2651874404258192 3.095121887495846 0.2500000000000001
-0.06599781897526 3.31031736619207 0.2500000000000001
0.2854601702793336 3.489981551420269 0.2500000000000001
-0.04567722573313145 3.705335994414948 0.2500000000000001
0.3045228962389923 3.883354767452945 0.2500000000000001
-0.4388418175837039 2.735039185252228 0.2500000000000001
-0.396779720962484 3.525283469153857 0.2500000000000001
-0.3772951557417619 3.918573233261523 0.2500000000000001
0.5812013642368452 2.859351471811751 0.2500000000000002
-0.1572421989679617 0.7026802204632132 0.2500000000000001
0.1572125451780773 -0.7026781662177162 0.2500000000000001
-0.1623692853145516 0.3266584884240482 0.2500000000000001
0.1599446577009244 -0.3217546638239088 0.2500000000000001
0.474260655724592 -1.960325571763347 0.2500000000000002
0.5005836174703053 -1.595128306877986 0.2500000000000002
-0.4742606829865921 1.960325569939593 0.2500000000000001
-0.5005836412874851 1.595128305284681 0.2500000000000001
-0.1485975642905958 -0.4848893626550428 0.2500000000000001
-0.8613215186164735 -1.865856856806327 0.2500000000000001
0.861321405913382 1.865856849266793 0.2500000000000002
0.1507537619510091 0.4882008442367836 0.2500000000000001
-0.163059278190847 1.05309165500862 0.2500000000000001
0.163054335892533 -1.05309131263437 0.2500000000000001
-0.6147651152763716 -3.651827246606921 0.2500000000000001
-0.622057766334609 -4.051189547782245 0.2500000000000001
0.6147651151790912 3.651827246600413 0.2500000000000002
0.6220577663044984 4.051189547780231 0.2500000000000002
0.7262329089602908 -3.740309519233113 0.2500000000000002
0.7061606616363185 -4.132628881879352 0.2500000000000002
1.080902389241351 -4.39693585480728 0.2500000000000002
-0.7262329089602908 3.740309519233113 0.2500000000000001
-0.7061606616363185 4.132628881879352 0.2500000000000001
-1.080902389241351 4.39693585480728 0.25
-0.8148915010527062 1.083624488344805 0.2500000000000001
0.8148915010527062 -1.083624488344805 0.2500000000000002
-0.1678790835048125 -0.1000878082301565 0.2500000000000001
0.3699590366903312 -4.337060488283707 0.2500000000000002
-0.369959036694164 4.337060488283449 0.2500000000000001
0.3302456443021689 4.333215199845425 0.2500000000000001
0.6744939792041723 4.451531893545924 0.2500000000000002
-0.3302456443183825 -4.333215199846509 0.2500000000000001
-0.6744939792041728 -4.451531893545924 0.2500000000000001
-0.764735462334128 3.353169190484538 0.2500000000000001
0.7647354623149653 -3.35316919048582 0.2500000000000002
0.8280343294415962 -1.799180679563406 0.2500000000000002
-0.8280343379547929 1.799180678993896 0.2500000000000001
-1.125132627410314 3.578092326941456 0.25
-0.8219247580724691 2.952556790141776 0.2500000000000001
1.12513262740712 -3.578092326941669 0.2500000000000002
0.8219247580716378 -2.952556790141832 0.2500000000000002
0.03003996632199982 -4.098427863370417 0.2500000000000001
-0.03003996632765105 4.09842786337004 0.2500000000000001
-1.196247757135754 -4.009357299099438 0.25
1.196247757135754 4.009357299099438 0.2500000000000002
-1.154748524058725 2.395166910692205 0.25
-0.8074912294181709 2.177846939501324 0.2500000000000001
1.154748524058725 -2.395166910692205 0.2500000000000002
0.807491223455638 -2.177846939900201 0.2500000000000002
-1.165820240163752 -3.200043779168504 0.25
1.165820240163752 3.200043779168504 0.2500000000000002
-1.17124121793138 -2.80062632929836 0.25
1.17124121793138 2.80062632929836 0.2500000000000002
-0.5921251809803381 -3.249395289154605 0.2500000000000001
0.5921251802499404 3.249395289105743 0.2500000000000002
-0.5571501763998123 -2.463962815604437 0.2500000000000001
0.5571501685911902 2.463962815082062 0.2500000000000002
0.4291576792931009 -3.131969063340083 0.2500000000000002
-0.4291576801107049 3.131969063285388 0.2500000000000001
0.1869848466228842 -4.687957889688818 0.2500000000000001
-0.1869848466235232 4.687957889688775 0.2500000000000001
-0.5379125543611089 -2.081692236334278 0.2500000000000001
0.5379124145499716 2.081692226981289 0.2500000000000002
0.4554757885673036 -2.350594824257309 0.2500000000000002
-0.4554758044425691 2.350594823195296 0.2500000000000001
-1.162735009876008 1.616010766627871 0.25
1.162735008457142 -1.616010766722789 0.2500000000000002
-1.152477260754028 -1.275097053296621 0.25
1.152477234214838 1.275097051521221 0.2500000000000002
0.1610578844684908 0.1106663961597462 0.2500000000000001
0.8013299869128353 -2.570541015687605 0.2500000000000002
-0.8013299895126722 2.570541015513683 0.2500000000000001
-0.5094813844542587 -0.5386906649165083 0.2500000000000001
0.5093870051516292 0.5386843511950755 0.2500000000000002
-0.9202002022672928 -4.654078527875087 0.2500000000000001
0.9202002022672928 4.654078527875087 0.2500000000000002
-1.167138704329011 2.79228931692144 0.25
1.167138704107866 -2.792289316936235 0.2500000000000002
-1.176421672310997 -1.639168056951647 0.25
1.176421576280414 1.639168050527459 0.2500000000000002
0.1717170428241569 0.824406237946878 0.2500000000000001
-0.1713817940931879 -0.8238551525813531 0.2500000000000001
-1.160787470683505 1.24275866755618 0.25
1.160787470447028 -1.242758667572 0.2500000000000002
-1.186601192309385 -2.01524965616488 0.25
1.186601167460138 2.015249654502532 0.2500000000000002
0.9197566307685732 -4.71019021389229 0.2500000000000002
-0.9197566307685732 4.71019021389229 0.2500000000000001
-0.4854156634280853 0.2065281515264676 0.2500000000000001
0.4854156634280853 -0.2065281515264676 0.2500000000000002
0.1578614802700473 -1.397546287392332 0.2500000000000001
-0.1578624142131439 1.397546337080836 0.2500000000000001
0.1728746155144934 1.18782722843017 0.2500000000000001
-0.1728228656717462 -1.187735525955773 0.2500000000000001
-0.5043734164833136 1.238606525052772 0.2500000000000001
0.5043730581221261 -1.238606501336211 0.2500000000000002
-0.8643084008641444 -2.227507092180468 0.2500000000000001
0.8643083835431957 2.227507091021743 0.2500000000000002
-0.8371484565917839 1.433495032909718 0.2500000000000001
0.8371484098838189 -1.433495030356979 0.2500000000000002
-0.8782471650373127 -2.61852954654032 0.2500000000000001
0.878247161837503 2.618529546326261 0.2500000000000002
-0.01103692946147185 4.424975379613238 0.2500000000000001
0.01103692945770916 -4.424975379613489 0.2500000000000001
-0.5625000000034672 -4.746381182514502 0.2500000000000001
0.5625000000034672 4.746381182514501 0.2500000000000002
-0.8923114370210009 -3.00782821629176 0.2500000000000001
0.8923114366760641 3.007828216268684 0.2500000000000002
0.8994173189992996 3.40925604847538 0.2500000000000002
-0.8994173190990116 -3.40925604848205 0.2500000000000001
-0.9036612179931762 -3.819870612904499 0.2500000000000001
0.9036612179661403 3.81987061290269 0.2500000000000002
0.9127291855678037 4.236489708029204 0.2500000000000002
-0.9127291855746069 -4.23648970802966 0.2500000000000001
0.7266416921001406 -4.453137252128704 0.2500000000000002
-0.7266416921009071 4.453137252128652 0.2500000000000001
-1.231699384965106 -4.724249423404935 0.25
1.231699384965106 4.724249423404935 0.2500000000000002
-1.225131804001707 4.741425213740357 0.25
1.225131804001707 -4.741425213740357 0.2500000000000002
-0.3418641632109809 -0.3107678170816517 0.2500000000000001
0.3406743180413464 0.3142387560291262 0.2500000000000001
3 1 0 2
593
594
-0.3526339723921175 2.146246928558369 0.1258566186365981
-0.6940598729762849 -3.025652365299347 0.1273983597980977
$EndNodes
$Elements
1 1574 1 1574
3 1 4 1574
1 191 264 451 594 
2 524 451 264 594 
3 535 197 457 593 
4 217 457 197 593 
5 317 577 524 594 
6 477 457 217 593 
7 264 317 524 594 
8 275 197 535 593 
9 217 275 477 593 
10 477 275 535 593 
11 577 191 451 594 
12 317 191 577 594 
13 535 457 477 593 
14 275 217 197 593 
15 31 350 155 95 
16 386 63 127 156 
17 95 350 155 415 
18 127 416 386 156 
19 424 347 28 92 
20 340 234 329 589 
21 376 590 231 330 
22 32 31 350 155 
23 386 64 63 156 
24 383 124 60 166 
25 347 28 164 424 
26 164 27 28 347 
27 386 416 64 156 
28 350 32 155 415 
29 128 416 64 386 
30 32 350 96 415 
31 383 60 59 166 
32 426 124 383 166 
33 424 27 347 91 
34 524 577 451 594 
35 59 426 123 383 
36 119 407 120 370 
37 55 56 147 370 
38 148 23 24 334 
39 408 87 334 88 
40 347 164 27 424 
41 87 333 86 516 
42 22 23 256 333 
43 258 54 55 369 
44 518 119 118 369 
45 159 332 592 284 
46 88 335 536 89 
47 276 24 25 335 
48 537 121 120 371 
49 56 57 277 371 
50 92 424 347 91 
51 331 430 543 591 
52 521 134 133 388 
53 37 38 260 352 
54 70 69 388 261 
55 352 101 102 520 
56 59 426 383 166 
57 20 21 145 338 
58 84 85 338 405 
59 53 52 374 146 
60 116 374 406 117 
61 97 354 289 549 
62 289 33 354 97 
63 390 65 129 290 
64 129 550 390 290 
65 95 96 350 415 
66 127 416 128 386 
67 124 123 426 383 
68 264 191 317 594 
69 349 293 26 90 
70 554 122 58 385 
71 153 38 39 351 
72 413 102 351 103 
73 134 414 135 387 
74 71 70 387 154 
75 100 101 357 522 
76 523 133 132 393 
77 69 68 393 263 
78 36 37 262 357 
79 19 20 248 339 
80 84 508 339 83 
81 375 52 51 250 
82 115 510 116 375 
83 132 131 412 394 
84 394 68 67 152 
85 35 36 151 358 
86 100 99 411 358 
87 81 340 329 589 
88 590 376 49 330 
89 66 65 390 290 
90 130 129 550 390 
91 34 33 354 289 
92 354 97 98 549 
93 349 90 495 553 
94 496 122 554 385 
95 235 293 26 349 
96 236 294 58 385 
97 10 336 89 553 
98 293 25 2 336 
99 6 57 372 294 
100 121 14 372 554 
101 130 556 131 392 
102 392 67 66 296 
103 99 98 555 356 
104 34 35 295 356 
105 25 276 335 89 
106 536 335 276 89 
107 277 57 121 371 
108 277 121 537 371 
109 17 18 234 340 
110 81 82 340 494 
111 113 114 376 491 
112 376 50 49 231 
113 349 235 293 495 
114 496 294 236 385 
115 401 140 149 76 
116 410 44 365 108 
117 287 21 22 337 
118 85 337 547 86 
119 373 54 53 288 
120 548 118 117 373 
121 236 58 59 385 
122 26 27 235 349 
123 376 590 491 231 
124 340 234 589 494 
125 147 407 55 370 
126 148 23 334 408 
127 407 119 55 370 
128 87 334 23 408 
129 90 349 293 553 
130 294 554 58 385 
131 33 3 353 278 
132 97 353 11 538 
133 539 129 15 389 
134 389 65 7 279 
135 248 339 508 83 
136 339 248 19 83 
137 375 51 115 250 
138 115 510 375 250 
139 401 140 409 149 
140 150 44 365 410 
141 86 333 22 516 
142 258 118 54 369 
143 149 77 401 76 
144 44 45 150 365 
145 109 410 365 108 
146 140 409 141 401 
147 18 19 158 341 
148 82 83 341 418 
149 377 51 50 157 
150 115 114 417 377 
151 130 556 392 296 
152 555 34 295 356 
153 79 398 143 429 
154 428 47 111 362 
155 495 293 349 553 
156 496 554 294 385 
157 285 42 43 368 
158 545 106 368 107 
159 286 403 74 75 
160 138 546 139 403 
161 333 256 22 516 
162 258 518 118 369 
163 147 120 407 370 
164 408 334 148 88 
165 24 148 334 88 
166 147 56 120 370 
167 145 20 338 84 
168 116 374 52 146 
169 530 46 110 364 
170 400 78 271 142 
171 270 45 46 364 
172 530 110 109 364 
173 400 271 78 77 
174 142 531 400 141 
175 331 591 479 497 
176 104 103 514 355 
177 136 135 515 391 
178 254 39 40 355 
179 72 71 391 255 
180 399 329 298 558 
181 297 557 363 330 
182 84 338 145 405 
183 116 406 374 146 
184 171 40 41 360 
185 73 72 396 172 
186 137 136 432 396 
187 105 104 431 360 
188 530 109 45 364 
189 141 271 400 77 
190 23 333 87 516 
191 55 119 518 369 
192 392 66 130 296 
193 555 98 34 356 
194 79 169 78 398 
195 429 398 143 142 
196 46 47 168 362 
197 110 428 111 362 
198 368 43 285 107 
199 403 546 139 75 
200 77 401 141 149 
201 410 365 45 109 
202 21 338 85 405 
203 406 374 53 117 
204 80 298 79 399 
205 399 144 558 143 
206 112 363 111 557 
207 363 48 47 297 
208 352 260 37 520 
209 388 133 521 261 
210 69 133 388 261 
211 101 352 37 520 
212 395 8 73 328 
213 327 41 4 359 
214 105 587 12 359 
215 137 588 16 395 
216 102 260 352 520 
217 521 134 388 261 
218 388 134 70 261 
219 352 38 260 102 
220 439 441 179 440 
221 460 458 459 198 
222 455 197 458 195 
223 436 179 176 438 
224 380 539 15 389 
225 7 380 389 279 
226 344 353 3 278 
227 344 11 353 538 
228 544 63 127 384 
229 31 348 95 543 
230 327 285 587 368 
231 403 588 546 328 
232 181 179 441 440 
233 200 460 199 198 
234 460 459 199 198 
235 181 179 440 180 
236 195 197 458 198 
237 436 439 179 438 
238 559 345 170 430 
239 419 159 381 300 
240 39 153 351 103 
241 387 135 71 154 
242 70 134 387 154 
243 351 153 38 102 
244 197 459 458 198 
245 438 439 179 440 
246 333 23 256 516 
247 55 518 258 369 
248 340 18 234 82 
249 114 50 376 231 
250 196 457 456 455 
251 437 178 176 177 
252 196 197 455 195 
253 437 436 176 438 
254 197 455 458 457 
255 438 179 176 178 
256 446 185 445 444 
257 463 465 464 204 
258 444 183 185 443 
259 185 443 445 444 
260 202 464 463 462 
261 464 202 463 204 
262 444 446 185 186 
263 465 463 205 204 
264 441 183 181 182 
265 202 460 201 200 
266 183 442 441 443 
267 202 460 462 201 
268 459 457 197 458 
269 440 179 438 178 
270 459 197 199 198 
271 440 179 178 180 
272 234 340 82 494 
273 491 114 376 231 
274 349 27 235 91 
275 236 59 123 385 
276 452 416 421 156 
277 423 155 173 415 
278 329 399 589 558 
279 557 590 363 330 
280 357 262 36 522 
281 132 523 393 263 
282 398 79 169 429 
283 168 47 428 362 
284 344 3 32 278 
285 11 344 96 538 
286 380 7 64 279 
287 128 539 15 380 
288 393 68 132 263 
289 100 357 36 522 
290 199 201 460 200 
291 440 441 181 182 
292 199 461 459 460 
293 180 440 181 182 
294 533 455 458 195 
295 272 436 179 176 
296 273 533 458 195 
297 436 272 179 532 
298 63 62 384 284 
299 30 31 283 348 
300 454 196 456 455 
301 437 176 175 177 
302 455 454 196 195 
303 436 176 175 437 
304 45 150 365 410 
305 409 141 401 149 
306 196 197 457 455 
307 178 437 176 438 
308 67 412 394 152 
309 411 35 151 358 
310 357 37 262 522 
311 393 523 133 263 
312 398 169 78 142 
313 110 46 428 362 
314 393 133 69 263 
315 37 357 101 522 
316 161 452 156 192 
317 173 415 433 423 
318 407 518 519 147 
319 257 408 256 148 
320 195 454 196 194 
321 435 436 175 437 
322 458 273 195 198 
323 436 179 439 532 
324 35 411 99 358 
325 67 412 131 394 
326 339 20 248 84 
327 375 116 52 250 
328 547 21 337 85 
329 53 548 117 373 
330 23 148 256 408 
331 518 407 55 147 
332 23 87 408 516 
333 407 55 119 518 
334 338 21 145 405 
335 406 53 374 146 
336 540 482 592 332 
337 46 530 270 364 
338 531 400 271 142 
339 463 203 205 204 
340 186 185 444 184 
341 387 414 135 154 
342 413 351 153 103 
343 183 444 185 184 
344 463 203 204 202 
345 462 201 463 202 
346 442 443 183 444 
347 102 351 153 413 
348 387 134 414 154 
349 192 193 452 221 
350 220 433 174 173 
351 462 461 201 460 
352 442 183 441 182 
353 346 30 170 94 
354 382 126 62 159 
355 384 62 126 284 
356 94 348 30 543 
357 270 530 45 364 
358 531 271 400 141 
359 444 186 189 446 
360 208 465 463 205 
361 424 425 27 91 
362 193 454 161 453 
363 423 174 435 434 
364 349 90 91 495 
365 122 496 123 385 
366 196 457 217 456 
367 178 437 215 177 
368 257 247 477 507 
369 506 246 259 215 
370 199 201 461 460 
371 441 440 442 182 
372 210 460 202 200 
373 451 183 181 441 
374 193 533 453 221 
375 480 272 174 434 
376 470 202 460 462 
377 441 451 183 443 
378 453 533 193 195 
379 436 174 272 434 
380 381 61 60 300 
381 28 29 299 345 
382 82 341 158 418 
383 114 417 377 157 
384 202 470 460 210 
385 183 181 191 451 
386 293 2 26 343 
387 294 6 58 379 
388 197 535 457 459 
389 274 440 438 178 
390 481 453 533 221 
391 220 272 174 480 
392 533 453 455 195 
393 436 174 176 272 
394 535 197 199 459 
395 178 274 440 180 
396 193 273 533 221 
397 272 480 532 434 
398 533 273 193 195 
399 532 436 272 434 
400 200 460 527 210 
401 451 181 266 441 
402 90 343 10 553 
403 554 122 14 379 
404 193 454 453 195 
405 193 453 452 221 
406 174 433 480 434 
407 435 174 436 434 
408 454 193 161 194 
409 454 453 421 161 
410 163 174 175 435 
411 174 423 435 163 
412 460 527 458 198 
413 179 441 439 526 
414 210 527 200 267 
415 460 470 527 210 
416 266 451 441 526 
417 191 181 266 451 
418 427 59 426 123 
419 161 193 452 192 
420 174 433 423 173 
421 408 517 256 516 
422 257 408 517 256 
423 518 259 147 258 
424 259 519 518 147 
425 452 161 156 421 
426 155 423 173 163 
427 345 559 92 93 
428 125 124 560 381 
429 481 452 453 221 
430 433 220 174 480 
431 454 455 453 195 
432 174 175 436 176 
433 411 151 36 358 
434 412 132 394 152 
435 408 256 23 516 
436 55 518 147 258 
437 274 438 215 178 
438 201 203 463 202 
439 183 442 444 184 
440 123 427 59 236 
441 425 235 27 91 
442 457 196 217 197 
443 215 438 437 178 
444 527 460 200 198 
445 441 266 179 181 
446 201 463 461 462 
447 183 442 184 182 
448 520 262 37 522 
449 521 133 523 263 
450 527 200 267 198 
451 266 441 179 526 
452 120 56 537 371 
453 276 24 335 88 
454 260 262 37 520 
455 521 133 263 261 
456 394 132 68 152 
457 100 411 36 358 
458 263 133 69 261 
459 37 101 520 522 
460 195 193 454 194 
461 174 435 436 175 
462 186 444 189 184 
463 203 205 208 463 
464 277 537 56 371 
465 536 276 335 88 
466 527 533 458 273 
467 179 272 266 532 
468 534 215 438 475 
469 554 14 372 379 
470 336 10 343 553 
471 294 372 6 379 
472 343 293 2 336 
473 341 158 18 82 
474 377 50 114 157 
475 17 234 329 340 
476 231 49 376 330 
477 590 113 376 491 
478 589 81 340 494 
479 457 477 217 456 
480 215 438 475 437 
481 446 444 449 189 
482 208 465 468 463 
483 257 247 217 477 
484 259 475 506 215 
485 193 452 453 161 
486 433 174 423 434 
487 257 507 408 247 
488 259 246 506 147 
489 102 153 260 520 
490 154 134 521 261 
491 153 260 38 102 
492 70 134 154 261 
493 289 220 173 433 
494 452 192 221 290 
495 273 458 527 198 
496 526 439 179 532 
497 91 235 349 495 
498 123 496 236 385 
499 456 218 196 562 
500 216 437 301 177 
501 477 247 218 507 
502 506 246 215 216 
503 285 545 368 107 
504 546 403 286 75 
505 425 27 164 424 
506 218 247 309 569 
507 310 476 506 570 
508 341 19 158 83 
509 115 51 377 157 
510 421 453 452 161 
511 174 163 173 423 
512 36 151 411 522 
513 263 132 412 152 
514 209 465 208 205 
515 446 186 189 190 
516 412 556 568 296 
517 411 567 295 555 
518 527 267 273 198 
519 526 179 266 532 
520 565 218 562 305 
521 566 476 561 306 
522 307 311 266 571 
523 567 307 266 571 
524 568 267 312 308 
525 568 527 572 312 
526 247 507 408 536 
527 147 246 506 277 
528 151 36 262 522 
529 523 132 412 263 
530 217 275 257 477 
531 259 534 475 215 
532 36 411 100 522 
533 68 132 263 152 
534 587 106 327 368 
535 74 588 403 328 
536 247 218 507 569 
537 506 216 310 246 
538 340 329 17 81 
539 113 376 49 590 
540 508 339 248 84 
541 510 116 375 250 
542 524 485 185 445 
543 204 487 464 265 
544 275 197 199 535 
545 440 438 534 274 
546 217 218 196 456 
547 216 215 437 177 
548 480 289 433 220 
549 452 481 550 221 
550 298 169 79 558 
551 111 428 557 297 
552 308 412 568 296 
553 307 295 151 567 
554 456 478 218 562 
555 218 302 196 562 
556 437 216 301 476 
557 437 561 476 301 
558 587 285 545 368 
559 328 546 403 286 
560 478 477 218 507 
561 215 476 506 216 
562 568 533 527 273 
563 272 567 266 532 
564 557 363 111 297 
565 399 298 79 558 
566 169 398 429 142 
567 168 428 46 362 
568 165 27 164 425 
569 215 534 438 274 
570 191 571 266 311 
571 312 470 527 572 
572 266 567 571 526 
573 267 568 312 527 
574 203 269 201 463 
575 528 444 442 184 
576 471 164 425 211 
577 520 102 153 413 
578 521 414 134 154 
579 247 408 257 148 
580 506 407 519 147 
581 461 463 201 529 
582 182 528 442 184 
583 80 329 399 144 
584 112 48 363 330 
585 507 477 257 517 
586 475 259 506 519 
587 273 267 568 308 
588 567 272 266 307 
589 247 477 218 217 
590 506 475 476 215 
591 131 556 412 296 
592 411 295 35 555 
593 305 302 218 562 
594 218 565 562 478 
595 476 306 216 301 
596 306 476 561 301 
597 569 218 565 309 
598 310 566 476 570 
599 202 204 464 265 
600 525 462 464 202 
601 183 264 185 443 
602 524 185 443 445 
603 167 426 59 166 
604 164 213 211 471 
605 247 276 309 569 
606 310 506 277 570 
607 482 592 332 284 
608 218 478 507 569 
609 476 310 506 216 
610 363 590 112 330 
611 589 399 329 144 
612 185 264 225 524 
613 485 185 225 524 
614 265 204 487 227 
615 487 525 464 265 
616 536 408 148 88 
617 407 537 120 147 
618 426 167 59 427 
619 462 525 470 202 
620 451 264 183 443 
621 564 435 304 561 
622 175 304 435 561 
623 218 477 478 456 
624 476 215 437 216 
625 148 24 276 88 
626 120 537 56 147 
627 194 563 562 303 
628 563 194 562 454 
629 469 208 465 468 
630 449 446 189 190 
631 571 191 266 451 
632 451 266 571 526 
633 312 527 210 267 
634 470 312 527 210 
635 428 530 498 270 
636 531 239 429 271 
637 337 287 21 547 
638 53 548 373 288 
639 309 305 218 565 
640 566 310 476 306 
641 183 191 264 451 
642 265 470 202 210 
643 536 148 276 88 
644 147 537 56 277 
645 152 412 308 296 
646 567 295 151 411 
647 556 221 296 290 
648 289 295 480 555 
649 423 435 304 564 
650 304 163 175 435 
651 304 163 435 423 
652 267 568 527 273 
653 266 567 526 532 
654 45 410 109 530 
655 77 141 271 149 
656 194 161 563 303 
657 563 454 421 161 
658 563 454 161 194 
659 148 247 408 536 
660 506 537 407 147 
661 569 507 247 536 
662 310 506 246 277 
663 165 235 27 425 
664 425 235 91 495 
665 236 427 59 167 
666 427 123 496 236 
667 218 217 477 456 
668 215 476 437 475 
669 477 275 257 517 
670 534 475 519 259 
671 289 295 220 480 
672 221 550 556 481 
673 168 428 498 270 
674 271 239 429 169 
675 247 148 276 536 
676 506 537 147 277 
677 275 477 535 517 
678 215 259 534 274 
679 363 48 297 330 
680 112 590 363 557 
681 144 589 399 558 
682 298 80 329 399 
683 170 299 345 559 
684 381 560 419 300 
685 71 135 515 154 
686 39 153 103 514 
687 175 304 561 301 
688 562 302 194 303 
689 150 242 315 410 
690 149 500 576 409 
691 479 331 543 591 
692 562 196 456 454 
693 301 437 175 177 
694 143 558 79 429 
695 428 111 47 297 
696 389 380 539 279 
697 278 344 353 538 
698 202 464 525 265 
699 185 524 443 264 
700 63 420 544 127 
701 31 95 422 543 
702 547 256 542 516 
703 518 548 541 258 
704 507 257 408 517 
705 259 506 519 147 
706 289 480 433 549 
707 221 550 452 290 
708 454 562 196 194 
709 561 435 175 437 
710 568 481 533 221 
711 220 307 272 480 
712 199 461 467 459 
713 182 440 448 180 
714 93 170 345 430 
715 159 61 419 381 
716 164 471 425 424 
717 202 525 470 265 
718 451 524 264 443 
719 273 568 533 221 
720 272 480 567 532 
721 152 67 412 296 
722 35 151 295 411 
723 127 126 544 384 
724 218 569 565 478 
725 306 310 476 216 
726 556 221 568 296 
727 567 480 295 555 
728 348 94 95 543 
729 558 79 399 143 
730 363 47 111 297 
731 420 127 63 156 
732 95 155 31 422 
733 212 426 214 472 
734 203 208 269 463 
735 528 444 184 189 
736 547 337 22 86 
737 118 548 54 373 
738 83 158 341 418 
739 377 417 115 157 
740 85 547 21 405 
741 53 548 406 117 
742 221 556 568 481 
743 480 307 295 220 
744 452 156 279 416 
745 278 173 155 415 
746 473 471 164 424 
747 412 67 131 296 
748 555 35 411 99 
749 332 592 540 159 
750 221 273 568 308 
751 480 307 272 567 
752 463 208 269 468 
753 444 528 449 189 
754 110 428 46 530 
755 169 271 78 142 
756 426 472 212 167 
757 556 131 392 296 
758 555 295 35 356 
759 562 302 196 194 
760 437 175 561 301 
761 588 138 74 403 
762 106 42 327 368 
763 445 447 185 446 
764 466 464 465 204 
765 446 447 185 186 
766 466 465 205 204 
767 221 568 296 308 
768 307 480 295 567 
769 482 211 213 471 
770 420 416 127 156 
771 155 95 415 422 
772 239 469 513 499 
773 469 239 513 209 
774 238 512 498 190 
775 512 450 498 190 
776 208 469 465 209 
777 446 449 450 190 
778 22 547 86 516 
779 548 54 258 118 
780 312 568 412 572 
781 568 312 412 308 
782 151 567 571 307 
783 307 571 151 311 
784 294 554 372 379 
785 336 343 293 553 
786 515 135 71 391 
787 514 103 39 355 
788 211 482 213 222 
789 433 278 415 173 
790 156 452 279 192 
791 414 515 135 154 
792 154 515 71 255 
793 153 39 254 514 
794 153 413 103 514 
795 211 165 164 425 
796 247 276 569 536 
797 506 570 537 277 
798 256 257 282 517 
799 517 542 256 516 
800 519 518 541 259 
801 259 518 541 258 
802 432 136 72 396 
803 104 171 360 40 
804 508 145 244 405 
805 510 505 406 146 
806 410 270 45 150 
807 141 409 531 149 
808 396 72 432 172 
809 171 104 360 431 
810 257 275 282 517 
811 519 541 534 259 
812 549 289 480 555 
813 550 221 556 290 
814 535 282 275 517 
815 259 541 534 274 
816 186 446 512 190 
817 205 253 209 465 
818 201 207 199 461 
819 440 182 448 442 
820 94 170 346 430 
821 382 419 126 159 
822 590 113 13 378 
823 378 49 5 330 
824 1 17 329 342 
825 342 9 81 589 
826 573 253 239 313 
827 512 314 238 574 
828 331 430 591 497 
829 296 130 556 290 
830 295 289 34 555 
831 571 311 191 577 
832 578 572 470 312 
833 426 212 214 166 
834 159 126 62 284 
835 94 170 543 30 
836 308 312 412 152 
837 567 151 571 411 
838 483 562 305 565 
839 484 566 561 306 
840 314 238 574 270 
841 239 313 531 573 
842 468 269 244 208 
843 505 189 449 528 
844 547 22 256 516 
845 518 118 548 258 
846 207 269 509 529 
847 188 528 268 251 
848 463 269 201 529 
849 182 528 184 268 
850 504 508 244 405 
851 510 505 146 245 
852 167 212 426 166 
853 589 397 9 144 
854 329 80 1 397 
855 590 361 13 112 
856 361 5 48 330 
857 238 168 498 270 
858 239 531 429 499 
859 209 239 513 253 
860 190 238 512 252 
861 270 410 45 530 
862 531 271 141 149 
863 542 287 256 547 
864 282 287 256 542 
865 258 548 541 288 
866 288 541 258 281 
867 412 523 312 572 
868 522 311 151 571 
869 20 145 248 84 
870 52 116 146 250 
871 222 291 482 284 
872 472 426 427 167 
873 544 419 592 159 
874 191 571 577 451 
875 470 318 312 210 
876 509 244 145 405 
877 505 511 406 146 
878 514 39 254 355 
879 391 71 515 255 
880 84 145 508 405 
881 510 406 116 146 
882 392 131 67 296 
883 99 555 35 356 
884 430 331 543 170 
885 287 145 21 405 
886 146 406 53 288 
887 309 276 293 569 
888 310 554 570 277 
889 562 305 302 483 
890 306 561 484 301 
891 293 89 276 25 
892 276 536 89 553 
893 294 57 121 277 
894 554 277 121 537 
895 309 495 565 569 
896 496 570 566 310 
897 535 199 467 459 
898 440 274 448 180 
899 511 528 188 251 
900 511 528 448 188 
901 529 509 207 467 
902 249 207 269 509 
903 416 420 421 156 
904 155 415 423 422 
905 311 317 191 577 
906 318 470 312 578 
907 558 169 79 429 
908 428 47 168 297 
909 309 235 305 565 
910 566 236 310 306 
911 263 412 312 152 
912 151 411 522 571 
913 423 304 162 564 
914 304 423 162 163 
915 303 420 161 563 
916 420 563 421 161 
917 508 158 492 248 
918 510 417 489 250 
919 296 66 130 290 
920 98 34 289 555 
921 542 256 282 517 
922 258 541 259 281 
923 412 263 312 523 
924 262 311 151 522 
925 318 470 265 210 
926 530 428 46 270 
927 271 429 531 142 
928 251 505 268 245 
929 244 504 509 529 
930 586 494 326 493 
931 325 230 585 231 
932 509 504 244 405 
933 251 146 505 245 
934 145 244 248 508 
935 245 146 510 250 
936 212 479 472 214 
937 544 63 384 284 
938 348 31 283 543 
939 293 569 495 309 
940 570 496 554 310 
941 549 98 289 555 
942 130 550 556 290 
943 274 259 541 281 
944 535 542 282 517 
945 156 416 64 279 
946 155 32 278 415 
947 271 169 429 142 
948 168 46 428 270 
949 543 292 219 479 
950 468 269 463 529 
951 184 528 189 268 
952 495 309 565 235 
953 236 566 310 496 
954 587 106 12 366 
955 327 4 42 366 
956 588 138 16 402 
957 402 74 8 328 
958 248 158 19 83 
959 158 248 508 83 
960 115 417 510 250 
961 250 51 115 157 
962 547 287 21 405 
963 406 548 53 288 
964 579 578 525 318 
965 317 577 580 524 
966 305 223 302 483 
967 484 224 306 301 
968 470 525 578 318 
969 212 219 479 214 
970 22 287 337 547 
971 373 548 54 288 
972 318 525 579 265 
973 317 320 264 524 
974 287 22 256 547 
975 54 548 258 288 
976 468 504 244 529 
977 268 505 189 245 
978 448 182 528 442 
979 461 207 529 201 
980 64 539 416 128 
981 415 96 32 538 
982 268 528 505 251 
983 509 269 244 529 
984 318 470 525 265 
985 450 512 446 190 
986 513 469 209 465 
987 299 28 345 92 
988 381 60 124 300 
989 126 544 384 284 
990 348 283 30 543 
991 495 293 309 235 
992 236 294 496 310 
993 276 569 536 553 
994 537 570 554 277 
995 508 244 492 504 
996 510 245 489 505 
997 207 275 199 535 
998 274 440 448 534 
999 254 40 171 104 
1000 432 72 136 255 
1001 429 586 326 499 
1002 585 428 498 325 
1003 447 446 512 186 
1004 205 253 465 466 
1005 563 483 562 303 
1006 484 564 304 561 
1007 508 248 145 84 
1008 146 116 510 250 
1009 89 293 276 553 
1010 277 554 121 294 
1011 165 305 235 565 
1012 566 427 236 306 
1013 211 483 471 551 
1014 161 421 420 156 
1015 155 163 162 423 
1016 171 104 431 514 
1017 172 72 432 255 
1018 269 468 244 529 
1019 505 268 189 528 
1020 336 293 25 89 
1021 121 372 57 294 
1022 579 319 318 265 
1023 320 317 580 524 
1024 159 592 544 284 
1025 302 562 483 303 
1026 187 512 242 252 
1027 466 253 513 500 
1028 561 304 484 301 
1029 511 505 528 251 
1030 244 249 269 509 
1031 145 249 244 509 
1032 505 511 146 251 
1033 530 574 498 270 
1034 313 271 239 531 
1035 543 170 331 283 
1036 275 207 282 535 
1037 541 448 534 274 
1038 425 165 235 565 
1039 235 425 565 495 
1040 427 236 306 167 
1041 566 427 496 236 
1042 545 106 587 368 
1043 285 327 42 368 
1044 328 403 74 286 
1045 546 138 588 403 
1046 232 158 248 492 
1047 158 508 492 418 
1048 250 417 489 157 
1049 489 229 250 157 
1050 265 487 579 227 
1051 579 525 487 265 
1052 320 225 264 524 
1053 225 580 485 524 
1054 164 213 471 473 
1055 512 186 190 252 
1056 513 209 253 465 
1057 283 162 292 422 
1058 182 180 448 188 
1059 461 207 199 467 
1060 345 29 170 93 
1061 61 125 419 381 
1062 291 420 544 160 
1063 244 508 492 248 
1064 489 250 245 510 
1065 485 447 185 445 
1066 487 464 466 204 
1067 494 82 158 418 
1068 157 491 114 417 
1069 432 172 323 286 
1070 324 171 285 431 
1071 564 292 484 304 
1072 515 432 136 255 
1073 104 171 254 514 
1074 83 508 158 418 
1075 115 417 250 157 
1076 563 551 483 303 
1077 359 587 12 366 
1078 395 402 8 328 
1079 4 327 359 366 
1080 402 16 588 395 
1081 292 472 484 212 
1082 466 500 488 228 
1083 502 187 226 486 
1084 170 29 30 346 
1085 62 61 382 159 
1086 278 289 173 433 
1087 279 192 452 290 
1088 223 302 483 303 
1089 579 319 265 227 
1090 225 320 580 524 
1091 224 484 304 301 
1092 189 489 505 449 
1093 208 232 244 468 
1094 249 282 207 542 
1095 251 188 541 281 
1096 523 572 578 312 
1097 571 522 311 577 
1098 420 63 544 160 
1099 569 276 293 553 
1100 310 294 554 277 
1101 162 283 31 422 
1102 419 544 126 159 
1103 170 94 543 430 
1104 346 93 94 430 
1105 126 125 419 382 
1106 426 472 474 214 
1107 82 234 158 18 
1108 114 50 231 157 
1109 498 230 238 190 
1110 498 450 490 190 
1111 233 209 239 469 
1112 469 239 233 499 
1113 574 242 512 314 
1114 253 313 573 500 
1115 204 466 487 227 
1116 185 225 187 485 
1117 219 237 331 479 
1118 104 254 40 355 
1119 391 136 72 255 
1120 344 32 96 538 
1121 64 539 128 380 
1122 471 483 211 425 
1123 581 225 580 485 
1124 487 582 579 227 
1125 491 157 114 231 
1126 234 82 158 494 
1127 469 232 208 468 
1128 189 489 449 190 
1129 160 420 63 156 
1130 155 162 31 422 
1131 390 130 66 290 
1132 289 354 34 98 
1133 89 336 293 553 
1134 372 121 554 294 
1135 213 471 473 482 
1136 188 528 182 268 
1137 201 207 529 269 
1138 226 243 502 503 
1139 240 501 228 241 
1140 187 185 447 186 
1141 206 466 205 204 
1142 542 282 207 535 
1143 541 188 274 281 
1144 187 502 512 447 
1145 500 466 253 206 
1146 569 293 495 553 
1147 294 554 496 310 
1148 422 423 162 564 
1149 303 420 160 161 
1150 323 322 488 228 
1151 581 584 226 486 
1152 543 422 292 552 
1153 422 292 283 543 
1154 390 550 130 290 
1155 98 289 354 549 
1156 551 420 544 291 
1157 544 291 160 284 
1158 325 428 498 168 
1159 429 239 326 169 
1160 312 578 523 263 
1161 317 522 311 262 
1162 501 488 500 228 
1163 503 502 226 486 
1164 484 292 224 304 
1165 573 239 513 499 
1166 238 512 574 498 
1167 223 551 303 483 
1168 491 490 417 157 
1169 158 494 418 493 
1170 289 278 33 97 
1171 549 289 97 538 
1172 279 129 65 290 
1173 279 550 129 290 
1174 578 312 318 263 
1175 522 317 311 577 
1176 479 219 237 214 
1177 583 432 323 286 
1178 432 583 546 286 
1179 545 584 285 431 
1180 584 324 285 431 
1181 320 321 225 580 
1182 319 582 227 579 
1183 263 521 578 523 
1184 520 317 262 522 
1185 509 542 207 467 
1186 207 249 542 509 
1187 188 511 541 448 
1188 511 188 541 251 
1189 521 263 578 261 
1190 317 262 260 520 
1191 248 244 232 492 
1192 250 489 245 229 
1193 482 211 471 551 
1194 509 145 287 405 
1195 511 146 288 406 
1196 494 158 233 493 
1197 490 491 230 157 
1198 238 498 574 270 
1199 573 531 239 499 
1200 41 105 431 360 
1201 396 137 73 172 
1202 486 187 225 485 
1203 227 488 466 487 
1204 263 318 578 261 
1205 522 520 317 577 
1206 472 484 212 167 
1207 431 171 41 360 
1208 396 432 137 172 
1209 467 207 199 535 
1210 180 274 448 188 
1211 575 502 243 503 
1212 316 241 501 240 
1213 291 482 211 222 
1214 182 448 528 188 
1215 207 461 529 467 
1216 160 63 544 284 
1217 422 283 31 543 
1218 211 223 483 551 
1219 342 329 1 397 
1220 590 13 361 378 
1221 5 361 378 330 
1222 9 342 397 589 
1223 515 255 322 323 
1224 254 324 321 514 
1225 391 515 136 255 
1226 514 254 104 355 
1227 225 226 187 486 
1228 227 488 228 466 
1229 450 449 489 190 
1230 209 232 208 469 
1231 213 482 540 222 
1232 278 433 415 538 
1233 416 452 539 279 
1234 489 245 189 505 
1235 492 244 468 504 
1236 580 321 225 581 
1237 582 319 227 322 
1238 186 512 187 252 
1239 253 513 465 466 
1240 540 560 474 214 
1241 345 559 93 430 
1242 419 125 560 381 
1243 322 488 582 323 
1244 226 321 584 581 
1245 305 165 483 565 
1246 306 427 484 566 
1247 234 158 233 494 
1248 231 230 491 157 
1249 279 452 550 290 
1250 549 433 289 538 
1251 299 473 497 213 
1252 488 583 582 323 
1253 321 324 226 584 
1254 299 29 170 345 
1255 381 159 61 300 
1256 467 542 207 535 
1257 188 541 274 448 
1258 28 299 424 92 
1259 314 574 410 270 
1260 313 409 531 573 
1261 253 573 239 513 
1262 314 512 238 252 
1263 292 212 484 224 
1264 287 282 249 542 
1265 287 542 509 547 
1266 548 511 541 288 
1267 541 288 251 281 
1268 540 482 332 222 
1269 582 515 322 323 
1270 584 321 514 581 
1271 160 161 420 156 
1272 423 162 155 422 
1273 159 544 126 284 
1274 283 170 30 543 
1275 483 165 211 425 
1276 417 490 489 157 
1277 232 233 158 492 
1278 493 418 158 492 
1279 230 229 489 157 
1280 432 172 255 323 
1281 431 324 171 514 
1282 515 582 583 323 
1283 321 584 514 324 
1284 547 509 287 405 
1285 511 548 406 288 
1286 425 483 165 565 
1287 427 306 484 167 
1288 298 326 169 558 
1289 557 428 585 297 
1290 60 124 300 166 
1291 493 158 233 492 
1292 230 489 490 157 
1293 486 225 581 485 
1294 227 582 488 487 
1295 502 315 242 410 
1296 410 502 315 575 
1297 500 149 576 240 
1298 576 240 149 316 
1299 28 299 164 424 
1300 484 472 427 167 
1301 479 474 472 214 
1302 214 540 497 474 
1303 488 322 227 228 
1304 581 226 225 486 
1305 521 578 579 261 
1306 520 260 317 580 
1307 292 479 472 212 
1308 291 544 482 284 
1309 544 291 482 551 
1310 502 187 512 242 
1311 240 500 253 206 
1312 168 498 325 238 
1313 429 239 499 326 
1314 318 579 578 261 
1315 577 520 317 580 
1316 540 213 497 473 
1317 230 585 498 325 
1318 326 586 493 499 
1319 255 515 432 323 
1320 324 254 171 514 
1321 292 543 552 479 
1322 292 219 283 543 
1323 479 292 219 212 
1324 213 299 237 497 
1325 542 249 287 509 
1326 511 541 288 251 
1327 410 315 44 108 
1328 149 140 316 76 
1329 165 483 211 223 
1330 145 509 287 249 
1331 146 511 288 251 
1332 300 124 426 166 
1333 326 558 586 429 
1334 325 428 297 585 
1335 280 497 237 214 
1336 305 165 223 483 
1337 306 224 484 167 
1338 255 154 515 322 
1339 582 515 414 154 
1340 254 321 153 514 
1341 413 153 321 514 
1342 512 187 447 186 
1343 205 253 466 206 
1344 214 280 540 300 
1345 466 500 228 206 
1346 187 502 447 486 
1347 515 583 432 323 
1348 431 584 324 514 
1349 226 581 225 321 
1350 582 227 488 322 
1351 318 319 579 261 
1352 320 317 260 580 
1353 329 234 298 558 
1354 297 231 557 330 
1355 484 224 212 167 
1356 409 313 531 149 
1357 314 410 150 270 
1358 230 498 490 190 
1359 233 493 469 499 
1360 278 353 33 97 
1361 129 65 389 279 
1362 574 410 242 314 
1363 500 313 573 409 
1364 415 32 278 538 
1365 539 64 416 279 
1366 304 292 162 564 
1367 582 515 154 322 
1368 581 413 321 514 
1369 326 298 234 558 
1370 231 557 585 297 
1371 303 551 420 563 
1372 237 213 497 280 
1373 292 564 484 552 
1374 551 223 303 291 
1375 489 245 229 189 
1376 244 492 468 232 
1377 540 560 214 300 
1378 44 150 315 410 
1379 149 576 140 409 
1380 154 521 579 261 
1381 520 153 260 580 
1382 540 214 497 280 
1383 574 530 410 270 
1384 313 271 531 149 
1385 228 501 323 241 
1386 243 226 584 503 
1387 159 540 300 419 
1388 204 206 466 227 
1389 447 185 187 485 
1390 93 346 170 430 
1391 382 61 419 159 
1392 323 488 501 228 
1393 503 226 584 486 
1394 243 584 285 503 
1395 286 323 501 241 
1396 289 278 97 538 
1397 539 550 129 279 
1398 482 332 222 284 
1399 489 189 229 190 
1400 232 469 492 468 
1401 211 223 551 291 
1402 231 590 557 330 
1403 234 329 589 558 
1404 299 473 559 497 
1405 233 326 494 493 
1406 491 585 490 230 
1407 154 579 582 319 
1408 321 320 153 580 
1409 154 579 414 582 
1410 413 321 153 580 
1411 558 494 326 586 
1412 585 325 231 297 
1413 213 540 497 280 
1414 214 497 479 474 
1415 472 292 484 552 
1416 261 579 154 319 
1417 320 260 153 580 
1418 521 154 579 414 
1419 153 520 413 580 
1420 486 447 187 485 
1421 206 228 466 227 
1422 240 228 500 206 
1423 242 187 226 502 
1424 550 539 452 279 
1425 278 289 433 538 
1426 150 242 410 314 
1427 500 313 409 149 
1428 233 326 234 494 
1429 230 491 585 231 
1430 558 326 169 429 
1431 428 325 297 168 
1432 154 319 582 322 
1433 580 413 321 581 
1434 331 479 543 219 
1435 512 242 252 314 
1436 253 573 513 500 
1437 488 323 501 583 
1438 324 243 226 584 
1439 479 237 331 497 
1440 545 285 584 503 
1441 584 243 285 324 
1442 323 501 583 286 
1443 501 546 583 286 
1444 170 559 430 497 
1445 482 213 540 473 
1446 497 214 479 237 
1447 489 490 450 190 
1448 232 209 233 469 
1449 343 26 293 90 
1450 58 122 554 379 
1451 559 299 345 92 
1452 381 124 560 300 
1453 32 344 278 538 
1454 380 64 539 279 
1455 226 243 242 502 
1456 501 240 228 500 
1457 498 230 325 238 
1458 326 233 239 499 
1459 422 292 564 162 
1460 243 315 502 575 
1461 243 315 242 502 
1462 316 501 576 240 
1463 501 500 576 240 
1464 420 291 303 160 
1465 588 402 395 328 
1466 327 587 359 366 
1467 540 159 300 280 
1468 551 482 211 291 
1469 397 342 329 589 
1470 361 590 378 330 
1471 587 285 327 431 
1472 432 546 588 328 
1473 299 170 237 497 
1474 97 278 353 538 
1475 389 539 129 279 
1476 540 419 560 300 
1477 315 285 43 107 
1478 75 546 139 316 
1479 479 552 292 472 
1480 222 540 213 280 
1481 292 422 564 552 
1482 551 303 420 291 
1483 346 170 29 93 
1484 419 125 61 382 
1485 473 164 299 424 
1486 171 327 285 431 
1487 328 172 432 286 
1488 559 424 299 92 
1489 300 426 214 166 
1490 489 229 230 190 
1491 469 233 232 492 
1492 222 332 540 280 
1493 419 540 592 159 
1494 367 108 575 107 
1495 43 44 315 367 
1496 316 404 75 76 
1497 139 576 140 404 
1498 242 574 512 502 
1499 253 313 500 240 
1500 170 299 559 497 
1501 490 489 230 190 
1502 469 493 233 492 
1503 426 560 124 300 
1504 331 170 430 497 
1505 90 293 343 553 
1506 294 58 554 379 
1507 490 585 498 230 
1508 233 326 493 499 
1509 587 545 285 431 
1510 432 546 328 286 
1511 367 44 315 108 
1512 316 140 404 76 
1513 588 137 432 328 
1514 105 587 327 431 
1515 575 545 285 107 
1516 75 286 546 316 
1517 592 482 544 284 
1518 219 331 283 543 
1519 108 410 315 575 
1520 149 576 316 140 
1521 170 331 237 497 
1522 164 473 299 213 
1523 105 327 41 431 
1524 172 137 73 328 
1525 327 171 41 431 
1526 172 432 137 328 
1527 280 332 540 159 
1528 367 315 43 107 
1529 75 139 404 316 
1530 560 426 474 214 
1531 234 589 494 558 
1532 590 231 557 491 
1533 242 502 410 574 
1534 500 313 149 240 
1535 494 326 234 558 
1536 491 557 585 231 
1537 473 424 299 559 
1538 214 560 426 300 
1539 402 588 74 328 
1540 587 327 106 366 
1541 285 315 575 107 
1542 546 576 139 316 
1543 329 80 397 144 
1544 361 48 112 330 
1545 589 329 397 144 
1546 112 590 361 330 
1547 395 137 588 328 
1548 327 587 105 359 
1549 106 327 42 366 
1550 74 138 588 402 
1551 378 590 49 330 
1552 81 329 342 589 
1553 575 243 285 503 
1554 501 286 241 316 
1555 41 327 105 359 
1556 395 73 137 328 
1557 575 285 545 503 
1558 501 546 286 316 
1559 108 315 367 575 
1560 316 140 576 404 
1561 315 367 575 107 
1562 139 576 404 316 
1563 243 575 285 315 
1564 546 501 576 316 
1565 342 17 329 81 
1566 49 113 590 378 
1567 2 10 343 336 
1568 14 6 372 379 
1569 342 1 9 397 
1570 361 13 5 378 
1571 359 12 4 366 
1572 402 8 16 395 
1573 3 11 353 344 
1574 15 7 380 389 
$EndElements
