$MeshFormat
2.2 0 8
$EndMeshFormat
$Nodes
158
1 25.05944965459959 30.211212219686605 0.0
2 97.49032461808447 49.37852506224866 0.0
3 97.49999825329822 99.48493111720809 0.0
4 25.000007451755998 118.68779200817207 0.0
5 9.999992548243998 118.68779200817208 0.0
6 -62.49999825329822 99.48493111720809 0.0
7 -62.49999825329822 50.515068882791894 0.0
8 9.999992548244 31.31220799182792 0.0
9 2.5 50.5 0.0
10 1.117420256817958 37.180000000001414 0.0
11 2.5 99.5 0.0
12 1.1174202568179439 112.81999999999859 0.0
13 33.88257974318205 112.81999999999857 0.0
14 32.5 99.5 0.0
15 32.5 50.5 0.0
16 33.645230943584735 37.17999999999908 0.0
17 2.3452026779099455 46.03177587527601 0.0
18 1.8836148207452013 41.584762755235815 0.0
19 2.5 95.04545454545455 0.0
20 2.5 90.5909090909091 0.0
21 2.5 86.13636363636364 0.0
22 2.5 81.68181818181817 0.0
23 2.5 77.22727272727273 0.0
24 2.5 72.7727272727273 0.0
25 2.5 68.31818181818187 0.0
26 2.5 63.863636363636424 0.0
27 2.5 59.40909090909097 0.0
28 2.5 54.95454545454549 0.0
29 1.883614820745187 108.41523724476423 0.0
30 2.3452026779099313 103.96822412472403 0.0
31 29.201842673701456 112.82 0.0
32 24.521105604220857 112.82 0.0
33 19.840368534740275 112.82 0.0
34 15.159631465259693 112.82 0.0
35 10.478894395779111 112.82 0.0
36 5.798157326298526 112.82 0.0
37 32.65479732209006 103.96822412472399 0.0
38 33.116385179254806 108.41523724476417 0.0
39 32.5 54.95454545454545 0.0
40 32.5 59.40909090909091 0.0
41 32.5 63.86363636363636 0.0
42 32.5 68.31818181818183 0.0
43 32.5 72.77272727272727 0.0
44 32.5 77.2272727272727 0.0
45 32.5 81.68181818181813 0.0
46 32.5 86.13636363636357 0.0
47 32.5 90.59090909090904 0.0
48 32.5 95.0454545454545 0.0
49 32.958603573954846 41.590266008863395 0.0
50 32.576258976812454 46.037255554916406 0.0
51 5.764250354927512 37.18 0.0
52 10.411080453037066 37.18 0.0
53 15.05791055114662 37.18 0.0
54 19.704740649256173 37.18 0.0
55 24.35157074736569 37.18 0.0
56 28.998400845475206 37.18 0.0
57 6.063175955104825 75.48300176591076 0.0
58 6.550262614801909 61.78214404875723 0.0
59 28.76136378808294 88.05894016258607 0.0
60 6.3758254868109905 97.27857525195498 0.0
61 28.588163804599464 52.543028951587594 0.0
62 29.481854252909784 70.55674437266056 0.0
63 6.707805477894022 52.62156960051231 0.0
64 28.335550785789824 97.41374521028067 0.0
65 5.902130613581235 87.5903810227218 0.0
66 28.754461042183273 78.9058310665954 0.0
67 28.190586540547166 61.360559078816586 0.0
68 17.386422543829216 108.82855182632719 0.0
69 17.659456983092014 41.18229747894025 0.0
70 29.072214504113695 43.56514698444012 0.0
71 5.737428315795974 43.26837965460338 0.0
72 27.9401744366078 107.88968369195052 0.0
73 5.9503501348902645 106.81703596554158 0.0
74 27.918465877527915 102.52915749556226 0.0
75 23.939723367992045 99.44740604188374 0.0
76 24.367802689089253 94.6751374588073 0.0
77 20.125123237737423 96.63992577978787 0.0
78 20.497280794631926 91.87550746497763 0.0
79 16.501363564862014 93.91645620336891 0.0
80 16.71166046764818 89.11840509978413 0.0
81 15.75750390319948 98.47526363016468 0.0
82 20.932668205648817 87.09161384668991 0.0
83 17.108133541603127 84.33457261335026 0.0
84 21.264594771267273 82.30141625791474 0.0
85 17.518293892152382 79.55200376036566 0.0
86 13.191452771419304 81.57001008844387 0.0
87 21.799738351830026 77.53010806471748 0.0
88 17.964635831708065 74.77274924303491 0.0
89 23.460650619513757 104.16997431669706 0.0
90 22.21483910763218 72.74804881543602 0.0
91 18.397000515493524 69.9922550559001 0.0
92 14.179607066533293 72.01992115382572 0.0
93 14.51427867814146 67.23058001645231 0.0
94 18.85441197927946 65.21403600603868 0.0
95 14.93508354980857 62.44904458421519 0.0
96 19.28954996094419 60.43379941676152 0.0
97 15.24738890660814 57.657677485973835 0.0
98 19.689559115760872 55.65037988484858 0.0
99 15.654899017580995 52.87493764648812 0.0
100 20.11293668576227 50.86907792182184 0.0
101 10.362572858677865 69.07360202147355 0.0
102 16.06407851152646 48.29948878294564 0.0
103 12.289126372348257 91.68837934955637 0.0
104 20.112939414576058 45.64533369009776 0.0
105 10.930815281939623 49.67146999829559 0.0
106 12.195067933563003 44.95887205001155 0.0
107 23.837313626596284 58.57612827327398 0.0
108 24.437528512661764 49.05815181378379 0.0
109 10.73248181767662 59.728817130789224 0.0
110 6.409270277296084 101.88076599726179 0.0
111 10.4780524644835 104.60113562127229 0.0
112 10.803912594161183 99.3232207220774 0.0
113 6.285117417033835 48.132074787552696 0.0
114 10.93852333794138 54.95604834064622 0.0
115 23.598973653198303 63.27583357961885 0.0
116 10.575404840842548 64.3925161487661 0.0
117 22.779729337771585 67.97956961191323 0.0
118 13.761885330762082 76.80211580685577 0.0
119 13.011043627292322 86.46651797215333 0.0
120 8.843777463285582 83.5855656459997 0.0
121 9.642277316687395 78.49767910994892 0.0
122 12.928211907049898 108.81482691299064 0.0
123 15.521198064626825 105.00329773516896 0.0
124 22.028155698310933 41.20427291203298 0.0
125 24.155404728016997 53.880133425945104 0.0
126 22.08826125040249 108.66808900713545 0.0
127 24.898118250258 85.23259423604144 0.0
128 6.37725537589313 66.15295270124577 0.0
129 28.493628778693544 92.60129244322667 0.0
130 6.654845541385656 57.24203591405691 0.0
131 27.73941630012478 66.56520407233029 0.0
132 28.815949428685858 74.46075567303411 0.0
133 28.394389266366982 56.899982110669434 0.0
134 7.101503922801751 92.24994553094126 0.0
135 18.78754307110133 101.47329260009712 0.0
136 28.761102541155726 48.07835549434675 0.0
137 13.332980023342166 40.958377330871 0.0
138 10.022557160021268 95.31983271775738 0.0
139 6.373750356934202 70.98188357957953 0.0
140 24.579413406751037 89.87405088387298 0.0
141 24.57114260822364 44.60885564497427 0.0
142 28.700720298685304 83.37108055534154 0.0
143 10.063878147449945 73.80970057293237 0.0
144 26.48873695877539 40.680338244869645 0.0
145 19.448815109894724 105.62864109708516 0.0
146 9.12673324570026 109.1745996999609 0.0
147 5.806396046646881 80.06407139000686 0.0
148 8.971527190742693 40.953900713185625 0.0
149 24.790378711587604 80.2109360486446 0.0
150 5.110460824702741 83.81163997538204 0.0
151 24.951488451698744 75.40586853274611 0.0
152 15.842329921138614 44.495425880468666 0.0
153 9.670787296639457 88.40726833603506 0.0
154 13.917016625592648 101.6049450422777 0.0
155 8.766654086605783 45.59165309310352 0.0
156 25.56989403924792 70.95094866356052 0.0
157 13.208471206080073 95.8344625844912 0.0
158 29.910937349163195 40.3437539277705 0.0
$EndNodes
$Elements
250
1 2 2 1 1 51 71 18
2 2 2 1 1 29 73 36
3 2 2 1 1 72 126 89
4 2 2 1 1 115 131 117
5 2 2 1 1 32 126 72
6 2 2 1 1 63 113 105
7 2 2 1 1 14 74 64
8 2 2 1 1 72 89 74
9 2 2 1 1 38 72 37
10 2 2 1 1 72 74 37
11 2 2 1 1 67 131 115
12 2 2 1 1 67 115 107
13 2 2 1 1 37 74 14
14 2 2 1 1 31 72 38
15 2 2 1 1 38 13 31
16 2 2 1 1 36 12 29
17 2 2 1 1 18 10 51
18 2 2 1 1 32 72 31
19 2 2 1 1 51 148 71
20 2 2 1 1 73 146 36
21 2 2 1 1 134 153 103
22 2 2 1 1 131 156 117
23 2 2 1 1 105 114 63
24 2 2 1 1 103 138 134
25 2 2 1 1 123 154 135
26 2 2 1 1 74 75 64
27 2 2 1 1 125 133 107
28 2 2 1 1 107 133 67
29 2 2 1 1 135 154 81
30 2 2 1 1 69 124 104
31 2 2 1 1 97 114 99
32 2 2 1 1 113 155 105
33 2 2 1 1 61 133 125
34 2 2 1 1 61 125 108
35 2 2 1 1 104 152 69
36 2 2 1 1 109 114 97
37 2 2 1 1 99 114 105
38 2 2 1 1 109 130 114
39 2 2 1 1 127 149 142
40 2 2 1 1 101 143 139
41 2 2 1 1 106 155 148
42 2 2 1 1 136 141 70
43 2 2 1 1 106 148 137
44 2 2 1 1 108 136 61
45 2 2 1 1 109 116 58
46 2 2 1 1 142 149 66
47 2 2 1 1 58 130 109
48 2 2 1 1 62 156 131
49 2 2 1 1 75 76 64
50 2 2 1 1 74 89 75
51 2 2 1 1 151 156 132
52 2 2 1 1 139 143 57
53 2 2 1 1 110 112 111
54 2 2 1 1 108 141 136
55 2 2 1 1 132 156 62
56 2 2 1 1 149 151 66
57 2 2 1 1 135 145 123
58 2 2 1 1 65 153 134
59 2 2 1 1 75 77 76
60 2 2 1 1 76 140 129
61 2 2 1 1 105 155 106
62 2 2 1 1 120 153 65
63 2 2 1 1 77 78 76
64 2 2 1 1 111 123 122
65 2 2 1 1 77 79 78
66 2 2 1 1 79 80 78
67 2 2 1 1 77 81 79
68 2 2 1 1 79 103 80
69 2 2 1 1 80 82 78
70 2 2 1 1 80 83 82
71 2 2 1 1 83 84 82
72 2 2 1 1 83 85 84
73 2 2 1 1 83 86 85
74 2 2 1 1 85 87 84
75 2 2 1 1 85 88 87
76 2 2 1 1 88 90 87
77 2 2 1 1 88 91 90
78 2 2 1 1 88 92 91
79 2 2 1 1 92 93 91
80 2 2 1 1 93 94 91
81 2 2 1 1 92 101 93
82 2 2 1 1 93 95 94
83 2 2 1 1 95 96 94
84 2 2 1 1 95 97 96
85 2 2 1 1 97 98 96
86 2 2 1 1 95 109 97
87 2 2 1 1 98 107 96
88 2 2 1 1 97 99 98
89 2 2 1 1 99 100 98
90 2 2 1 1 104 108 100
91 2 2 1 1 102 104 100
92 2 2 1 1 105 106 102
93 2 2 1 1 99 105 102
94 2 2 1 1 99 102 100
95 2 2 1 1 96 115 94
96 2 2 1 1 107 115 96
97 2 2 1 1 91 117 90
98 2 2 1 1 101 116 93
99 2 2 1 1 93 116 95
100 2 2 1 1 95 116 109
101 2 2 1 1 94 117 91
102 2 2 1 1 115 117 94
103 2 2 1 1 86 118 85
104 2 2 1 1 85 118 88
105 2 2 1 1 88 118 92
106 2 2 1 1 103 119 80
107 2 2 1 1 80 119 83
108 2 2 1 1 119 120 86
109 2 2 1 1 83 119 86
110 2 2 1 1 86 121 118
111 2 2 1 1 120 121 86
112 2 2 1 1 110 111 73
113 2 2 1 1 108 125 100
114 2 2 1 1 98 125 107
115 2 2 1 1 11 110 30
116 2 2 1 1 66 151 132
117 2 2 1 1 114 130 63
118 2 2 1 1 34 68 33
119 2 2 1 1 35 122 34
120 2 2 1 1 101 128 116
121 2 2 1 1 100 125 98
122 2 2 1 1 54 69 53
123 2 2 1 1 55 124 54
124 2 2 1 1 89 135 75
125 2 2 1 1 122 123 68
126 2 2 1 1 33 126 32
127 2 2 1 1 120 147 121
128 2 2 1 1 84 127 82
129 2 2 1 1 75 135 77
130 2 2 1 1 30 110 73
131 2 2 1 1 34 122 68
132 2 2 1 1 116 128 58
133 2 2 1 1 65 150 120
134 2 2 1 1 68 126 33
135 2 2 1 1 54 124 69
136 2 2 1 1 129 140 59
137 2 2 1 1 60 112 110
138 2 2 1 1 17 113 9
139 2 2 1 1 18 71 17
140 2 2 1 1 30 73 29
141 2 2 1 1 78 140 76
142 2 2 1 1 50 70 49
143 2 2 1 1 9 63 28
144 2 2 1 1 14 64 48
145 2 2 1 1 42 131 41
146 2 2 1 1 26 128 25
147 2 2 1 1 28 130 27
148 2 2 1 1 19 60 11
149 2 2 1 1 21 65 20
150 2 2 1 1 47 59 46
151 2 2 1 1 45 66 44
152 2 2 1 1 48 129 47
153 2 2 1 1 39 61 15
154 2 2 1 1 41 67 40
155 2 2 1 1 27 58 26
156 2 2 1 1 44 132 43
157 2 2 1 1 24 57 23
158 2 2 1 1 40 133 39
159 2 2 1 1 20 134 19
160 2 2 1 1 43 62 42
161 2 2 1 1 71 113 17
162 2 2 1 1 112 157 81
163 2 2 1 1 60 110 11
164 2 2 1 1 81 154 112
165 2 2 1 1 77 135 81
166 2 2 1 1 59 140 127
167 2 2 1 1 127 140 82
168 2 2 1 1 121 143 118
169 2 2 1 1 92 143 101
170 2 2 1 1 57 143 121
171 2 2 1 1 50 136 70
172 2 2 1 1 69 137 53
173 2 2 1 1 120 150 147
174 2 2 1 1 9 113 63
175 2 2 1 1 76 129 64
176 2 2 1 1 15 136 50
177 2 2 1 1 124 141 104
178 2 2 1 1 53 137 52
179 2 2 1 1 79 157 103
180 2 2 1 1 102 152 104
181 2 2 1 1 119 153 120
182 2 2 1 1 36 146 35
183 2 2 1 1 56 144 55
184 2 2 1 1 101 139 128
185 2 2 1 1 49 158 16
186 2 2 1 1 16 158 56
187 2 2 1 1 122 146 111
188 2 2 1 1 63 130 28
189 2 2 1 1 64 129 48
190 2 2 1 1 67 133 40
191 2 2 1 1 27 130 58
192 2 2 1 1 19 134 60
193 2 2 1 1 47 129 59
194 2 2 1 1 41 131 67
195 2 2 1 1 62 131 42
196 2 2 1 1 39 133 61
197 2 2 1 1 65 134 20
198 2 2 1 1 43 132 62
199 2 2 1 1 58 128 26
200 2 2 1 1 66 132 44
201 2 2 1 1 60 138 112
202 2 2 1 1 52 148 51
203 2 2 1 1 112 154 111
204 2 2 1 1 84 149 127
205 2 2 1 1 61 136 15
206 2 2 1 1 111 146 73
207 2 2 1 1 82 140 78
208 2 2 1 1 25 139 24
209 2 2 1 1 68 145 126
210 2 2 1 1 128 139 25
211 2 2 1 1 24 139 57
212 2 2 1 1 126 145 89
213 2 2 1 1 103 157 138
214 2 2 1 1 104 141 108
215 2 2 1 1 134 138 60
216 2 2 1 1 45 142 66
217 2 2 1 1 59 142 46
218 2 2 1 1 127 142 59
219 2 2 1 1 121 147 57
220 2 2 1 1 118 143 92
221 2 2 1 1 69 152 137
222 2 2 1 1 46 142 45
223 2 2 1 1 111 154 123
224 2 2 1 1 57 147 23
225 2 2 1 1 21 150 65
226 2 2 1 1 137 152 106
227 2 2 1 1 123 145 68
228 2 2 1 1 87 149 84
229 2 2 1 1 55 144 124
230 2 2 1 1 35 146 122
231 2 2 1 1 87 151 149
232 2 2 1 1 23 147 22
233 2 2 1 1 148 155 71
234 2 2 1 1 138 157 112
235 2 2 1 1 90 151 87
236 2 2 1 1 89 145 135
237 2 2 1 1 141 144 70
238 2 2 1 1 90 156 151
239 2 2 1 1 106 152 102
240 2 2 1 1 56 158 144
241 2 2 1 1 103 153 119
242 2 2 1 1 117 156 90
243 2 2 1 1 81 157 79
244 2 2 1 1 22 150 21
245 2 2 1 1 137 148 52
246 2 2 1 1 71 155 113
247 2 2 1 1 147 150 22
248 2 2 1 1 124 144 141
249 2 2 1 1 70 158 49
250 2 2 1 1 144 158 70
$EndElements
