$MeshFormat
2.2 0 8
$EndMeshFormat
$Nodes
158
1 -30.211212219686605 25.05944965459959 0.0
2 -49.37852506224866 97.49032461808447 0.0
3 -99.48493111720809 97.49999825329822 0.0
4 -118.68779200817207 25.000007451755998 0.0
5 -118.68779200817208 9.999992548243998 0.0
6 -99.48493111720809 -62.49999825329822 0.0
7 -50.515068882791894 -62.49999825329822 0.0
8 -31.31220799182792 9.999992548244 0.0
9 -50.5 2.5 0.0
10 -37.180000000001414 1.117420256817958 0.0
11 -99.5 2.5 0.0
12 -112.81999999999859 1.1174202568179439 0.0
13 -112.81999999999857 33.88257974318205 0.0
14 -99.5 32.5 0.0
15 -50.5 32.5 0.0
16 -37.17999999999908 33.645230943584735 0.0
17 -46.03177587527601 2.3452026779099455 0.0
18 -41.584762755235815 1.8836148207452013 0.0
19 -95.04545454545455 2.5 0.0
20 -90.5909090909091 2.5 0.0
21 -86.13636363636364 2.5 0.0
22 -81.68181818181817 2.5 0.0
23 -77.22727272727273 2.5 0.0
24 -72.7727272727273 2.5 0.0
25 -68.31818181818187 2.5 0.0
26 -63.863636363636424 2.5 0.0
27 -59.40909090909097 2.5 0.0
28 -54.95454545454549 2.5 0.0
29 -108.41523724476423 1.883614820745187 0.0
30 -103.96822412472403 2.3452026779099313 0.0
31 -112.82 29.201842673701456 0.0
32 -112.82 24.521105604220857 0.0
33 -112.82 19.840368534740275 0.0
34 -112.82 15.159631465259693 0.0
35 -112.82 10.478894395779111 0.0
36 -112.82 5.798157326298526 0.0
37 -103.96822412472399 32.65479732209006 0.0
38 -108.41523724476417 33.116385179254806 0.0
39 -54.95454545454545 32.5 0.0
40 -59.40909090909091 32.5 0.0
41 -63.86363636363636 32.5 0.0
42 -68.31818181818183 32.5 0.0
43 -72.77272727272727 32.5 0.0
44 -77.2272727272727 32.5 0.0
45 -81.68181818181813 32.5 0.0
46 -86.13636363636357 32.5 0.0
47 -90.59090909090904 32.5 0.0
48 -95.0454545454545 32.5 0.0
49 -41.590266008863395 32.958603573954846 0.0
50 -46.037255554916406 32.576258976812454 0.0
51 -37.18 5.764250354927512 0.0
52 -37.18 10.411080453037066 0.0
53 -37.18 15.05791055114662 0.0
54 -37.18 19.704740649256173 0.0
55 -37.18 24.35157074736569 0.0
56 -37.18 28.998400845475206 0.0
57 -75.48300176591076 6.063175955104825 0.0
58 -61.78214404875723 6.550262614801909 0.0
59 -88.05894016258607 28.76136378808294 0.0
60 -97.27857525195498 6.3758254868109905 0.0
61 -52.543028951587594 28.588163804599464 0.0
62 -70.55674437266056 29.481854252909784 0.0
63 -52.62156960051231 6.707805477894022 0.0
64 -97.41374521028067 28.335550785789824 0.0
65 -87.5903810227218 5.902130613581235 0.0
66 -78.9058310665954 28.754461042183273 0.0
67 -61.360559078816586 28.190586540547166 0.0
68 -108.82855182632719 17.386422543829216 0.0
69 -41.18229747894025 17.659456983092014 0.0
70 -43.56514698444012 29.072214504113695 0.0
71 -43.26837965460338 5.737428315795974 0.0
72 -107.88968369195052 27.9401744366078 0.0
73 -106.81703596554158 5.9503501348902645 0.0
74 -102.52915749556226 27.918465877527915 0.0
75 -99.44740604188374 23.939723367992045 0.0
76 -94.6751374588073 24.367802689089253 0.0
77 -96.63992577978787 20.125123237737423 0.0
78 -91.87550746497763 20.497280794631926 0.0
79 -93.91645620336891 16.501363564862014 0.0
80 -89.11840509978413 16.71166046764818 0.0
81 -98.47526363016468 15.75750390319948 0.0
82 -87.09161384668991 20.932668205648817 0.0
83 -84.33457261335026 17.108133541603127 0.0
84 -82.30141625791474 21.264594771267273 0.0
85 -79.55200376036566 17.518293892152382 0.0
86 -81.57001008844387 13.191452771419304 0.0
87 -77.53010806471748 21.799738351830026 0.0
88 -74.77274924303491 17.964635831708065 0.0
89 -104.16997431669706 23.460650619513757 0.0
90 -72.74804881543602 22.21483910763218 0.0
91 -69.9922550559001 18.397000515493524 0.0
92 -72.01992115382572 14.179607066533293 0.0
93 -67.23058001645231 14.51427867814146 0.0
94 -65.21403600603868 18.85441197927946 0.0
95 -62.44904458421519 14.93508354980857 0.0
96 -60.43379941676152 19.28954996094419 0.0
97 -57.657677485973835 15.24738890660814 0.0
98 -55.65037988484858 19.689559115760872 0.0
99 -52.87493764648812 15.654899017580995 0.0
100 -50.86907792182184 20.11293668576227 0.0
101 -69.07360202147355 10.362572858677865 0.0
102 -48.29948878294564 16.06407851152646 0.0
103 -91.68837934955637 12.289126372348257 0.0
104 -45.64533369009776 20.112939414576058 0.0
105 -49.67146999829559 10.930815281939623 0.0
106 -44.95887205001155 12.195067933563003 0.0
107 -58.57612827327398 23.837313626596284 0.0
108 -49.05815181378379 24.437528512661764 0.0
109 -59.728817130789224 10.73248181767662 0.0
110 -101.88076599726179 6.409270277296084 0.0
111 -104.60113562127229 10.4780524644835 0.0
112 -99.3232207220774 10.803912594161183 0.0
113 -48.132074787552696 6.285117417033835 0.0
114 -54.95604834064622 10.93852333794138 0.0
115 -63.27583357961885 23.598973653198303 0.0
116 -64.3925161487661 10.575404840842548 0.0
117 -67.97956961191323 22.779729337771585 0.0
118 -76.80211580685577 13.761885330762082 0.0
119 -86.46651797215333 13.011043627292322 0.0
120 -83.5855656459997 8.843777463285582 0.0
121 -78.49767910994892 9.642277316687395 0.0
122 -108.81482691299064 12.928211907049898 0.0
123 -105.00329773516896 15.521198064626825 0.0
124 -41.20427291203298 22.028155698310933 0.0
125 -53.880133425945104 24.155404728016997 0.0
126 -108.66808900713545 22.08826125040249 0.0
127 -85.23259423604144 24.898118250258 0.0
128 -66.15295270124577 6.37725537589313 0.0
129 -92.60129244322667 28.493628778693544 0.0
130 -57.24203591405691 6.654845541385656 0.0
131 -66.56520407233029 27.73941630012478 0.0
132 -74.46075567303411 28.815949428685858 0.0
133 -56.899982110669434 28.394389266366982 0.0
134 -92.24994553094126 7.101503922801751 0.0
135 -101.47329260009712 18.78754307110133 0.0
136 -48.07835549434675 28.761102541155726 0.0
137 -40.958377330871 13.332980023342166 0.0
138 -95.31983271775738 10.022557160021268 0.0
139 -70.98188357957953 6.373750356934202 0.0
140 -89.87405088387298 24.579413406751037 0.0
141 -44.60885564497427 24.57114260822364 0.0
142 -83.37108055534154 28.700720298685304 0.0
143 -73.80970057293237 10.063878147449945 0.0
144 -40.680338244869645 26.48873695877539 0.0
145 -105.62864109708516 19.448815109894724 0.0
146 -109.1745996999609 9.12673324570026 0.0
147 -80.06407139000686 5.806396046646881 0.0
148 -40.953900713185625 8.971527190742693 0.0
149 -80.2109360486446 24.790378711587604 0.0
150 -83.81163997538204 5.110460824702741 0.0
151 -75.40586853274611 24.951488451698744 0.0
152 -44.495425880468666 15.842329921138614 0.0
153 -88.40726833603506 9.670787296639457 0.0
154 -101.6049450422777 13.917016625592648 0.0
155 -45.59165309310352 8.766654086605783 0.0
156 -70.95094866356052 25.56989403924792 0.0
157 -95.8344625844912 13.208471206080073 0.0
158 -40.3437539277705 29.910937349163195 0.0
$EndNodes
$Elements
250
1 2 2 1 1 51 71 18
2 2 2 1 1 29 73 36
3 2 2 1 1 72 126 89
4 2 2 1 1 115 131 117
5 2 2 1 1 32 126 72
6 2 2 1 1 63 113 105
7 2 2 1 1 14 74 64
8 2 2 1 1 72 89 74
9 2 2 1 1 38 72 37
10 2 2 1 1 72 74 37
11 2 2 1 1 67 131 115
12 2 2 1 1 67 115 107
13 2 2 1 1 37 74 14
14 2 2 1 1 31 72 38
15 2 2 1 1 38 13 31
16 2 2 1 1 36 12 29
17 2 2 1 1 18 10 51
18 2 2 1 1 32 72 31
19 2 2 1 1 51 148 71
20 2 2 1 1 73 146 36
21 2 2 1 1 134 153 103
22 2 2 1 1 131 156 117
23 2 2 1 1 105 114 63
24 2 2 1 1 103 138 134
25 2 2 1 1 123 154 135
26 2 2 1 1 74 75 64
27 2 2 1 1 125 133 107
28 2 2 1 1 107 133 67
29 2 2 1 1 135 154 81
30 2 2 1 1 69 124 104
31 2 2 1 1 97 114 99
32 2 2 1 1 113 155 105
33 2 2 1 1 61 133 125
34 2 2 1 1 61 125 108
35 2 2 1 1 104 152 69
36 2 2 1 1 109 114 97
37 2 2 1 1 99 114 105
38 2 2 1 1 109 130 114
39 2 2 1 1 127 149 142
40 2 2 1 1 101 143 139
41 2 2 1 1 106 155 148
42 2 2 1 1 136 141 70
43 2 2 1 1 106 148 137
44 2 2 1 1 108 136 61
45 2 2 1 1 109 116 58
46 2 2 1 1 142 149 66
47 2 2 1 1 58 130 109
48 2 2 1 1 62 156 131
49 2 2 1 1 75 76 64
50 2 2 1 1 74 89 75
51 2 2 1 1 151 156 132
52 2 2 1 1 139 143 57
53 2 2 1 1 110 112 111
54 2 2 1 1 108 141 136
55 2 2 1 1 132 156 62
56 2 2 1 1 149 151 66
57 2 2 1 1 135 145 123
58 2 2 1 1 65 153 134
59 2 2 1 1 75 77 76
60 2 2 1 1 76 140 129
61 2 2 1 1 105 155 106
62 2 2 1 1 120 153 65
63 2 2 1 1 77 78 76
64 2 2 1 1 111 123 122
65 2 2 1 1 77 79 78
66 2 2 1 1 79 80 78
67 2 2 1 1 77 81 79
68 2 2 1 1 79 103 80
69 2 2 1 1 80 82 78
70 2 2 1 1 80 83 82
71 2 2 1 1 83 84 82
72 2 2 1 1 83 85 84
73 2 2 1 1 83 86 85
74 2 2 1 1 85 87 84
75 2 2 1 1 85 88 87
76 2 2 1 1 88 90 87
77 2 2 1 1 88 91 90
78 2 2 1 1 88 92 91
79 2 2 1 1 92 93 91
80 2 2 1 1 93 94 91
81 2 2 1 1 92 101 93
82 2 2 1 1 93 95 94
83 2 2 1 1 95 96 94
84 2 2 1 1 95 97 96
85 2 2 1 1 97 98 96
86 2 2 1 1 95 109 97
87 2 2 1 1 98 107 96
88 2 2 1 1 97 99 98
89 2 2 1 1 99 100 98
90 2 2 1 1 104 108 100
91 2 2 1 1 102 104 100
92 2 2 1 1 105 106 102
93 2 2 1 1 99 105 102
94 2 2 1 1 99 102 100
95 2 2 1 1 96 115 94
96 2 2 1 1 107 115 96
97 2 2 1 1 91 117 90
98 2 2 1 1 101 116 93
99 2 2 1 1 93 116 95
100 2 2 1 1 95 116 109
101 2 2 1 1 94 117 91
102 2 2 1 1 115 117 94
103 2 2 1 1 86 118 85
104 2 2 1 1 85 118 88
105 2 2 1 1 88 118 92
106 2 2 1 1 103 119 80
107 2 2 1 1 80 119 83
108 2 2 1 1 119 120 86
109 2 2 1 1 83 119 86
110 2 2 1 1 86 121 118
111 2 2 1 1 120 121 86
112 2 2 1 1 110 111 73
113 2 2 1 1 108 125 100
114 2 2 1 1 98 125 107
115 2 2 1 1 11 110 30
116 2 2 1 1 66 151 132
117 2 2 1 1 114 130 63
118 2 2 1 1 34 68 33
119 2 2 1 1 35 122 34
120 2 2 1 1 101 128 116
121 2 2 1 1 100 125 98
122 2 2 1 1 54 69 53
123 2 2 1 1 55 124 54
124 2 2 1 1 89 135 75
125 2 2 1 1 122 123 68
126 2 2 1 1 33 126 32
127 2 2 1 1 120 147 121
128 2 2 1 1 84 127 82
129 2 2 1 1 75 135 77
130 2 2 1 1 30 110 73
131 2 2 1 1 34 122 68
132 2 2 1 1 116 128 58
133 2 2 1 1 65 150 120
134 2 2 1 1 68 126 33
135 2 2 1 1 54 124 69
136 2 2 1 1 129 140 59
137 2 2 1 1 60 112 110
138 2 2 1 1 17 113 9
139 2 2 1 1 18 71 17
140 2 2 1 1 30 73 29
141 2 2 1 1 78 140 76
142 2 2 1 1 50 70 49
143 2 2 1 1 9 63 28
144 2 2 1 1 14 64 48
145 2 2 1 1 42 131 41
146 2 2 1 1 26 128 25
147 2 2 1 1 28 130 27
148 2 2 1 1 19 60 11
149 2 2 1 1 21 65 20
150 2 2 1 1 47 59 46
151 2 2 1 1 45 66 44
152 2 2 1 1 48 129 47
153 2 2 1 1 39 61 15
154 2 2 1 1 41 67 40
155 2 2 1 1 27 58 26
156 2 2 1 1 44 132 43
157 2 2 1 1 24 57 23
158 2 2 1 1 40 133 39
159 2 2 1 1 20 134 19
160 2 2 1 1 43 62 42
161 2 2 1 1 71 113 17
162 2 2 1 1 112 157 81
163 2 2 1 1 60 110 11
164 2 2 1 1 81 154 112
165 2 2 1 1 77 135 81
166 2 2 1 1 59 140 127
167 2 2 1 1 127 140 82
168 2 2 1 1 121 143 118
169 2 2 1 1 92 143 101
170 2 2 1 1 57 143 121
171 2 2 1 1 50 136 70
172 2 2 1 1 69 137 53
173 2 2 1 1 120 150 147
174 2 2 1 1 9 113 63
175 2 2 1 1 76 129 64
176 2 2 1 1 15 136 50
177 2 2 1 1 124 141 104
178 2 2 1 1 53 137 52
179 2 2 1 1 79 157 103
180 2 2 1 1 102 152 104
181 2 2 1 1 119 153 120
182 2 2 1 1 36 146 35
183 2 2 1 1 56 144 55
184 2 2 1 1 101 139 128
185 2 2 1 1 49 158 16
186 2 2 1 1 16 158 56
187 2 2 1 1 122 146 111
188 2 2 1 1 63 130 28
189 2 2 1 1 64 129 48
190 2 2 1 1 67 133 40
191 2 2 1 1 27 130 58
192 2 2 1 1 19 134 60
193 2 2 1 1 47 129 59
194 2 2 1 1 41 131 67
195 2 2 1 1 62 131 42
196 2 2 1 1 39 133 61
197 2 2 1 1 65 134 20
198 2 2 1 1 43 132 62
199 2 2 1 1 58 128 26
200 2 2 1 1 66 132 44
201 2 2 1 1 60 138 112
202 2 2 1 1 52 148 51
203 2 2 1 1 112 154 111
204 2 2 1 1 84 149 127
205 2 2 1 1 61 136 15
206 2 2 1 1 111 146 73
207 2 2 1 1 82 140 78
208 2 2 1 1 25 139 24
209 2 2 1 1 68 145 126
210 2 2 1 1 128 139 25
211 2 2 1 1 24 139 57
212 2 2 1 1 126 145 89
213 2 2 1 1 103 157 138
214 2 2 1 1 104 141 108
215 2 2 1 1 134 138 60
216 2 2 1 1 45 142 66
217 2 2 1 1 59 142 46
218 2 2 1 1 127 142 59
219 2 2 1 1 121 147 57
220 2 2 1 1 118 143 92
221 2 2 1 1 69 152 137
222 2 2 1 1 46 142 45
223 2 2 1 1 111 154 123
224 2 2 1 1 57 147 23
225 2 2 1 1 21 150 65
226 2 2 1 1 137 152 106
227 2 2 1 1 123 145 68
228 2 2 1 1 87 149 84
229 2 2 1 1 55 144 124
230 2 2 1 1 35 146 122
231 2 2 1 1 87 151 149
232 2 2 1 1 23 147 22
233 2 2 1 1 148 155 71
234 2 2 1 1 138 157 112
235 2 2 1 1 90 151 87
236 2 2 1 1 89 145 135
237 2 2 1 1 141 144 70
238 2 2 1 1 90 156 151
239 2 2 1 1 106 152 102
240 2 2 1 1 56 158 144
241 2 2 1 1 103 153 119
242 2 2 1 1 117 156 90
243 2 2 1 1 81 157 79
244 2 2 1 1 22 150 21
245 2 2 1 1 137 148 52
246 2 2 1 1 71 155 113
247 2 2 1 1 147 150 22
248 2 2 1 1 124 144 141
249 2 2 1 1 70 158 49
250 2 2 1 1 144 158 70
$EndElements
